<?xml version="1.0" encoding="UTF-8" standalone="no"?>
<!-- Created with Inkscape (http://www.inkscape.org/) -->

<svg
   xmlns:dc="http://purl.org/dc/elements/1.1/"
   xmlns:cc="http://creativecommons.org/ns#"
   xmlns:rdf="http://www.w3.org/1999/02/22-rdf-syntax-ns#"
   xmlns:svg="http://www.w3.org/2000/svg"
   xmlns="http://www.w3.org/2000/svg"
   xmlns:sodipodi="http://sodipodi.sourceforge.net/DTD/sodipodi-0.dtd"
   xmlns:inkscape="http://www.inkscape.org/namespaces/inkscape"
   width="1169.7678"
   height="737.8631"
   id="svg3955"
   version="1.1"
   inkscape:version="0.48.2 r9819"
   sodipodi:docname="Switzerland.svg">
  <title
     id="title3974">BlankMap-Switzerland</title>
  <defs
     id="defs3" />
  <sodipodi:namedview
     inkscape:document-units="mm"
     id="base"
     pagecolor="#ffffff"
     bordercolor="#666666"
     borderopacity="1.0"
     inkscape:pageopacity="0.0"
     inkscape:pageshadow="2"
     inkscape:zoom="0.7"
     inkscape:cx="267.61117"
     inkscape:cy="299.50005"
     inkscape:current-layer="layer1"
     showgrid="false"
     units="mm"
     fit-margin-top="0"
     fit-margin-left="0"
     fit-margin-right="0"
     fit-margin-bottom="0"
     inkscape:window-width="976"
     inkscape:window-height="804"
     inkscape:window-x="17"
     inkscape:window-y="11"
     inkscape:window-maximized="0" />
  <metadata
     id="metadata4">
    <rdf:RDF>
      <cc:Work
         rdf:about="">
        <dc:format>image/svg+xml</dc:format>
        <dc:type
           rdf:resource="http://purl.org/dc/dcmitype/StillImage" />
        <dc:title>BlankMap-Switzerland</dc:title>
      </cc:Work>
    </rdf:RDF>
  </metadata>
  <g
     inkscape:label="Layer 1"
     inkscape:groupmode="layer"
     id="layer1"
     transform="translate(800.28579,-93.999182)">
    <path
       style="fill:#000000;stroke:none;stroke-opacity:1;fill-opacity:1;fill-rule:nonzero"
       d="m -14.428569,830.93336 c -1.375,-0.4634 -4.6375,-1.1304 -7.25,-1.4824 -5.05374,-0.6808 -5.59873,-1.5605 -3.63584,-5.8686 0.86054,-1.8887 0.76239,-3.5497 -0.43116,-7.297 -0.84993,-2.6685 -1.83408,-6.7242 -2.18701,-9.0127 -0.35293,-2.2885 -1.50393,-4.9413 -2.55778,-5.895 -1.05385,-0.9537 -2.66381,-4.3989 -3.57769,-7.6559 -0.97881,-3.4885 -2.52431,-6.5259 -3.76106,-7.3919 -8.25021,-5.7766 -16.3514,-10.3963 -18.23114,-10.3963 -1.224,0 -2.89347,-0.668 -3.70992,-1.4844 -1.31262,-1.3126 -1.26726,-2.2019 0.39179,-7.6813 1.46445,-4.8368 3.01899,-7.354 7.08264,-11.4688 l 5.20638,-5.2718 -1.1894,-5.3148 c -0.65416,-2.9232 -2.07387,-6.7692 -3.1549,-8.5468 l -1.96551,-3.2321 -8.54682,0 c -5.4025,0 -9.89147,-0.5618 -12.20182,-1.5271 -5.10399,-2.1326 -6.39681,-0.5832 -7.04242,8.4401 -0.27889,3.8979 -0.85661,7.087 -1.28381,7.087 -1.11758,0 -5.7288,-5.6703 -6.29811,-7.7446 -0.26498,-0.9654 -0.76799,-3.451 -1.1178,-5.5234 -0.77625,-4.5989 -5.68667,-8.2596 -12.882491,-9.6039 -6.2449,-1.1667 -9.65133,-4.3551 -9.67144,-9.05237 -0.0194,-4.53717 -0.59162,-5.35443 -5.48504,-7.83432 -2.71778,-1.37731 -5.50468,-4.22577 -8.69234,-8.88433 -6.30279,-9.21112 -11.12879,-13.50814 -18.30731,-16.30063 -3.3,-1.28373 -6.49921,-2.83408 -7.10936,-3.44523 -0.61015,-0.61115 -1.87955,-5.22332 -2.82088,-10.24928 l -1.71153,-9.13809 2.93747,-5.86191 c 4.00008,-7.98244 4.4821,-12.56657 3.64196,-34.63615 -0.71607,-18.81022 -0.75299,-19.04711 -3.43652,-22.0505 l -2.71267,-3.03601 -5.79243,1.64781 c -8.03945,2.28702 -8.93784,1.35683 -5.93581,-6.14597 1.45829,-3.64463 1.89192,-3.9434 6.63692,-4.57285 4.46408,-0.59218 5.70819,-1.33067 10.30982,-6.11984 3.35079,-3.48737 6.37172,-5.67413 8.39859,-6.0795 3.86286,-0.77257 4.64821,-2.14261 6.14053,-10.71215 0.75363,-4.32765 1.74881,-6.99683 2.81036,-7.53767 3.6034,-1.83588 8.60955,-2.07898 13.54125,-0.65758 2.80627,0.80881 7.72893,2.23476 10.93926,3.16878 5.34659,1.55555 6.06205,1.56525 8.51631,0.11548 2.142591,-1.26566 4.779611,-1.48953 13.163041,-1.11749 5.76603,0.25588 12.14061,0.95614 14.16573,1.55612 5.15457,1.52715 25.38837,-0.45842 31.29445,-3.07096 4.04335,-1.78856 4.56225,-2.43886 6.06167,-7.59669 2.0465,-7.03973 4.72127,-8.71718 9.93526,-6.23079 1.88125,0.8971 5.78009,1.94411 8.66409,2.32669 3.71529,0.49285 5.91676,1.4219 7.5530604,3.1875 2.68555,2.89776 2.88401,6.38884 1.26181,22.19676 -0.9234,8.99832 -0.84877,10.52269 0.62945,12.85596 2.77859,4.38581 6.68916,8.14715 8.47040003,8.14715 6.39947997,0 10.10614957,10.13123 10.02407957,27.39826 -0.0444,9.35265 -0.46407,12.40807 -2.4312196,17.70268 -3.16495,8.51847 -5.39787,27.30088 -3.79296,31.90473 0.64077,1.8381 1.63117,6.25989 2.20089,9.8262 1.26682,7.93 3.03943,10.68091 12.7528296,19.7911 l 7.5946,7.12297 -4.23105,6.49405 c -2.32707,3.57173 -6.52651,8.57637 -9.33208,11.12147 l -5.1010396,4.6275 0.47254,7.3632 c 0.30079,4.687 0.0554,7.9336 -0.67522,8.9328 -0.63126,0.8633 -3.61267,2.6597 -6.62535,3.9921 -10.32082,4.5643 -14.0478504,13.0432 -8.40825,19.1284 3.3002,3.561 3.16353,4.8543 -1,9.4629 -1.925,2.1307 -3.5000004,4.9149 -3.5000004,6.1871 0,3.8655 3.8875404,10.6285 8.1231604,14.1316 10.23517,8.4651 11.87684,10.4272 11.87684,14.1953 0,3.5358 -0.83405,4.7987 -5.84972,8.8578 -1.4026,1.1352 -2.15157997,2.8737 -2.15401997,5 -0.002,1.7929 -0.89544,4.7223 -1.98530003,6.5098 -1.75452,2.8777 -2.47019,3.241 -6.24626,3.1711 -2.3455904,-0.043 -5.3897004,-0.458 -6.7647004,-0.9214 z m -490.235541,-20.6634 c -6.09764,-2.311 -7.21215,-3.1956 -11.76808,-9.3412 -4.77707,-6.4439 -13.99054,-25.4544 -14.0015,-28.8898 -0.008,-2.4138 -3.58458,-7.6649 -12.96233,-19.0298 -8.41844,-10.2022 -8.48884,-10.2582 -12.16258,-9.6708 -2.03232,0.325 -4.35145,0.8428 -5.15361,1.1506 -4.04242,1.5512 -7.04158,-7.5531 -4.34852,-13.2005 1.93015,-4.0476 2.16003,-11.8952 0.38216,-13.0458 -0.6875,-0.445 -5.75,-1.98676 -11.25,-3.42618 l -10,-2.61711 0.21833,-5.88289 c 0.81473,-21.95305 1.80373,-26.39516 6.87947,-30.89921 0.62993,-0.55898 2.32812,-2.75927 3.77376,-4.88954 3.76124,-5.54249 3.50449,-9.97219 -0.93557,-16.14181 -15.48804,-21.52118 -15.7155,-22.13345 -9.93596,-26.74495 1.92498,-1.53595 3.49997,-3.43262 3.49997,-4.21482 0,-2.33354 3.47084,-3.49255 10.45901,-3.49255 7.4796,0 7.23654,-0.27368 10.21378,11.5 1.51013,5.9719 6.2042,12.5 8.98819,12.5 1.90471,0 3.33902,3.37846 3.33902,7.86492 0,4.14002 1.85096,7.82648 7.75215,15.43952 6.27616,8.09681 9.0422,12.78666 9.71645,16.47438 1.15486,6.31626 5.09221,12.0059 9.06802,13.10368 6.26033,1.72856 10.94849,-0.56907 22.086,-10.82419 3.91744,-3.60707 8.41744,-7.73105 10,-9.16441 6.37988,-5.77838 10.05813,-11.30223 10.58351,-15.8939 0.88109,-7.7005 3.65713,-12.14509 8.60849,-13.78272 2.94518,-0.97409 4.61565,-2.21879 5.26304,-3.92155 1.19413,-3.1408 9.86069,-11.20302 12.09976,-11.25602 2.2118,-0.0524 5.82258,4.62106 5.82258,7.53613 0,1.26837 0.48909,2.6084 1.08687,2.97785 1.55437,0.96065 8.4689,-2.32621 15.18221,-7.21695 7.53709,-5.49089 14.50201,-7.08084 23.99948,-5.4786 9.542,1.60974 12.50951,1.43608 15.82707,-0.92623 2.21937,-1.58033 2.90437,-2.86068 2.90437,-5.42858 0,-4.4684 2.23326,-6.50333 7.13717,-6.50333 5.30665,0 7.46465,-1.29918 9.81697,-5.9101 3.20188,-6.27622 6.1499,-6.57343 15.99986,-1.61307 3.79724,1.91226 8.73301,3.7693 10.96838,4.12675 3.66556,0.58614 4.58005,0.26114 9.32096,-3.31265 10.08138,-7.59953 25.19711,-16.08602 32.4658,-18.22742 3.96502,-1.16812 8.51936,-3.22634 10.12074,-4.57382 1.60138,-1.34747 5.01461,-3.3514 7.58494,-4.45318 5.14067,-2.20354 7.58518,-6.1718 7.58518,-12.31326 0,-5.13111 1.72539,-6.53073 10.19188,-8.26758 6.78763,-1.39244 7.96322,-1.40518 10,-0.10838 1.26947,0.80826 5.00812,2.00708 8.30812,2.66406 3.3,0.65697 9.6,3.01993 14,5.25101 9.37381,4.75312 14.05043,5.15771 27.5,2.3791 7.44138,-1.53735 9.70508,-2.56959 18.17596,-8.2882 5.32177,-3.59268 10.3332,-7.27939 11.13651,-8.1927 0.80332,-0.91331 2.25904,-6.15508 3.23496,-11.64839 1.4645,-8.24355 2.25677,-10.47021 4.53655,-12.75 3.59062,-3.59062 4.71695,-3.48286 6.42918,0.61509 1.14534,2.74119 1.19655,4.53104 0.27187,9.50323 -1.37864,7.41327 0.108,19.16061 2.89732,22.89449 0.99971,1.33825 3.61484,3.39884 5.81142,4.5791 2.19657,1.18026 4.30267,2.57167 4.68022,3.09204 2.02493,2.79088 -5.6081,8.77976 -12.15014,9.53301 -3.95151,0.45497 -4.74508,0.96368 -6.27243,4.02087 -0.96173,1.925 -2.20275,5.3 -2.75785,7.5 -0.90302,3.57898 -1.81548,4.47365 -8.66901,8.5 -9.83135,5.77578 -12.76722,8.24025 -14.34014,12.03761 -1.13486,2.7398 -1.03921,3.39701 0.8703,5.97975 1.1799,1.59591 2.14528,3.5066 2.14528,4.24598 0,1.83575 -5.73069,7.1325 -10,9.24276 -6.5116,3.21861 -10.10632,6.66379 -12.72597,12.19656 -2.89717,6.11893 -3.73994,6.63161 -20.55231,12.50245 -7.91952,2.76548 -9.13359,3.53317 -11.86428,7.5021 -3.73418,5.42745 -3.40502,7.31644 2.47534,14.20546 5.07058,5.94034 9.24088,13.78492 11.12474,20.9263 1.328,5.03422 1.30701,5.14129 -2.54337,12.97158 -4.45755,9.06501 -8.42205,12.46781 -16.55315,14.20781 -5.92433,1.2678 -12.90622,6.6256 -14.88287,11.4209 -0.93199,2.261 -1.01313,4.6767 -0.31054,9.2456 0.77108,5.0143 0.65595,6.7557 -0.60825,9.2004 -0.85764,1.6585 -1.55934,4.1628 -1.55934,5.5651 0,4.2323 -3.24864,6.5496 -9.1819,6.5496 -7.05907,0 -20.3375,3.7248 -23.86755,6.6951 -3.27842,2.7586 -4.93682,7.6281 -4.94497,14.5198 -0.004,3.7659 -0.4291,4.9414 -2.1099,5.841 -2.53081,1.3544 -14.45024,0.3654 -20.24777,-1.6801 -2.14465,-0.7567 -6.00678,-1.3758 -8.58251,-1.3758 -4.81383,0 -6.74165,-0.9631 -9.1691,-4.581 -0.76796,-1.1446 -4.29533,-4.6587 -7.83859,-7.809 l -6.44229,-5.728 -6.31696,0.6765 c -6.69292,0.7168 -10.41549,-0.2212 -15.50021,-3.9056 l -2.70175,-1.9576 -5.83559,5.4027 c -4.12564,3.8196 -7.45577,5.9134 -11.36479,7.1457 -3.04106,0.9586 -8.19926,3.817 -11.46266,6.3519 -10.53604,8.1843 -15.47005,9.6682 -31.51675,9.4784 -9.92539,-0.1174 -11.1675,0.1004 -19.98112,3.5042 -5.1688,1.9962 -12.43259,5.1578 -16.14174,7.0257 -8.11711,4.0877 -11.83493,4.2172 -21.02939,0.7325 z M -795.9747,706.67398 c -0.325,-0.84692 0.0812,-3.80297 0.90259,-6.569 1.8401,-6.19626 1.2345,-8.81442 -2.48356,-10.73711 -3.52623,-1.82348 -3.61873,-3.76766 -0.38121,-8.01227 3.39735,-4.45415 11.28281,-8.08279 21.78909,-10.02665 11.42995,-2.11476 12.86208,-3.29139 12.86208,-10.5675 0,-5.10859 0.48452,-6.37475 5.15952,-13.48295 2.83774,-4.3147 5.92264,-10.0949 6.85533,-12.8449 0.93269,-2.75 2.39319,-5.14346 3.24556,-5.3188 1.54083,-0.31697 7.95872,3.8407 10.34673,6.70287 0.6875,0.824 1.25,2.58899 1.25,3.92219 0,1.4886 1.33793,3.6495 3.46712,5.59976 2.64837,2.42581 3.85051,4.70106 5.09066,9.63487 2.23821,8.90453 3.60628,10.77007 8.17505,11.14772 8.24113,0.6812 4.02483,8.0203 -8.93306,15.54935 -7.72917,4.49095 -12.79977,9.12911 -12.79977,11.70814 0,2.02706 -7.83817,11.35626 -10.29203,12.24985 -1.21439,0.44223 -8.73297,0.81258 -16.70797,0.82301 -7.975,0.0104 -17.30243,0.41099 -20.72762,0.89012 -5.2271,0.7312 -6.32255,0.62376 -6.81851,-0.6687 z M 22.485461,694.52106 c -9.42258,-7.82113 -11.79285,-11.73524 -14.1195496,-23.31607 -1.74677,-8.69433 -1.83939,-10.96355 -0.84026,-20.58693 0.62101,-5.98148 2.08489,-13.35624 3.2752296,-16.5 1.82893,-4.8303 2.15297,-7.78812 2.1565,-19.68446 0.004,-12.57255 -0.24515,-14.6042 -2.4409,-19.92579 -2.1875296,-5.30166 -2.8782396,-6.06923 -6.5579196,-7.28763 -2.63559,-0.87268 -5.29935,-2.83824 -7.41612,-5.47228 l -3.30325,-4.11045 1.24487,-14.83696 c 1.22984,-14.65779 1.21835,-14.87421 -0.95142,-17.92137 -2.34594,-3.29456 -5.5476704,-4.94552 -9.5909304,-4.94552 -1.37473,0 -4.74211,-0.96474 -7.48305,-2.14386 -4.33049,-1.86293 -5.49308,-1.9912 -8.87197,-0.97886 -3.56523,1.06817 -4.03915,1.64117 -5.70184,6.89386 -1.62951,5.14786 -2.26979,5.95047 -6.31342,7.91407 -5.95242,2.8905 -22.66959,4.49354 -27.16203,2.60461 -1.68718,-0.7094 -6.87051,-1.28982 -11.51852,-1.28982 -10.97953,0 -12.53325,-0.81075 -11.68766,-6.09878 0.5725,-3.58022 0.3005,-4.37587 -2.4748,-7.23925 -4.170211,-4.30256 -4.968441,-8.58921 -2.39447,-12.85887 1.0952,-1.8167 2.74025,-5.61268 3.65568,-8.43549 1.89954,-5.85747 3.56808,-7.62905 8.75181,-9.29233 4.33409,-1.39067 4.9328,-2.07901 7.24,-8.32395 1.72063,-4.6573 1.82497,-4.7391 5.42219,-4.25093 2.37104,0.32176 4.8948,-0.12065 7.13829,-1.25133 3.85658,-1.94365 7.98751,-8.3103 8.01306,-12.34985 0.0283,-4.47532 1.9372,-8.31456 5.28794,-10.63534 1.77568,-1.22987 4.26252,-2.98654 5.5263,-3.90371 2.0645,-1.49827 3.14275,-1.53614 10.61994,-0.37297 9.31303,1.44876 22.09264,0.21886 26.2878,-2.52991 1.25146,-0.81999 4.5795204,-6.20833 7.3957004,-11.97409 5.10245003,-10.44661 5.13303003,-10.48323 8.75955,-10.49221 2.88184,-0.007 4.18405,0.65384 6.2571296,3.17603 2.50129,3.04317 2.75884,3.12667 5.78166,1.87458 1.74006,-0.72076 4.78638,-2.59997 6.76959,-4.17603 2.15596,-1.71334 4.80991,-2.86557 6.60031,-2.86557 4.26975,0 9.46755,-3.5642 11.7649,-8.06734 2.3506,-4.60762 4.7722,-6.18001 7.321,-4.75364 0.9921,0.55519 8.4055,1.10797 16.4742,1.2284 l 14.6704,0.21897 7.3395,4.1868 c 5.7848,3.29988 8.347,4.18681 12.095,4.18681 6.374299,0 8.280699,-2.08814 7.889799,-8.64177 -0.2449,-4.10443 0.2974,-5.86676 3.4949,-11.35823 5.1616,-8.86469 8.051,-13.03938 11.1001,-16.03765 3.2568,-3.20253 3.2739,-5.96249 0.056,-8.98595 -5.3409,-5.01746 -10.6075,-17.90672 -8.4025,-20.56362 1.7427,-2.09979 9.1109,-2.46926 14.1213,-0.70808 4.4138,1.55151 4.9296,1.54347 8.6513,-0.13482 3.1587,-1.42438 5.0376,-1.61904 9.3064,-0.96419 2.9417,0.45127 8.0706,0.6842 11.3975,0.51761 4.7164,-0.23616 7.47,0.27613 12.5,2.32546 3.5481,1.4456 9.6011,3.33767 13.4511,4.20461 3.85,0.86694 9.2958,2.65072 12.1018,3.96396 2.806,1.31324 7.1889,2.77761 9.7397,3.25415 2.5508,0.47654 5.3174,1.43051 6.1481,2.11992 1.9195,1.59305 1.9233,5.58686 0.01,11.0086 -2.3035,6.52893 -1.982,13.22857 0.75,15.62521 5.7497,5.04397 14.4781,9.78891 19.25,10.46471 11.2919,1.59917 17.8707,5.32366 25.1743,14.25204 1.4549,1.77857 3.1444,2.65804 5.1062,2.65804 1.8276,0 4.7115,1.35883 7.6569,3.6078 4.6277,3.53353 4.8579,3.59357 11.1793,2.9166 5.5247,-0.59163 7.0821,-1.23451 10.8123,-4.46296 2.8297,-2.44905 5.787,-4.00026 8.4329,-4.42337 4.9369,-0.78944 5.6796,-2.04332 6.597,-11.13807 0.3884,-3.85 1.3749,-8.0438 2.1922,-9.31955 1.3347,-2.08315 2.1154,-2.28698 7.66097,-2 l 6.1748,0.31955 5.1031,-9.5 c 6.6414,-12.36374 10.0373,-16 14.942,-16 3.8311,0 7.2657,2.81788 13.3556,10.95745 1.3132,1.75516 4.1257,4.2884 6.25,5.62942 3.2957,2.08046 3.8624,2.95722 3.8624,5.97533 0,1.94542 -0.6173,4.75227 -1.3719,6.23746 -1.4501,2.85438 -2.749,14.03388 -2.9859,25.70034 -0.1144,5.62876 -0.6091,7.65463 -2.5257,10.34181 -2.1966,3.07983 -2.3439,4.03584 -1.8787,12.19478 l 0.5048,8.85297 -4.9372,5.53939 -4.9372,5.5394 1.7187,2.90953 c 1.695,2.86935 1.6659,3.01225 -2.1108,10.34875 -3.7311,7.24787 -3.7966,7.55683 -2.5493,12.01203 0.7042,2.51505 2.1271,5.96524 3.1621,7.66708 1.8157,2.98568 2.1276,3.09426 8.8901,3.09426 l 7.0085,0 3.1134,4.25 c 3.0965,4.22694 3.11,4.30018 2.4863,13.49674 -1.009,14.87822 -2.6552,16.58603 -13.3227,13.8218 -3.6352,-0.94197 -10.2577,-1.56854 -16.5787,-1.56854 l -10.5254,0 -5.1664,-5.41323 c -2.8415,-2.97728 -6.2526,-5.68585 -7.5802,-6.01905 -2.0846,-0.5232 -2.4138,-1.19356 -2.4138,-4.91533 0,-5.79123 -5.24547,-14.09397 -8.40217,-13.29913 -10.4093,2.62104 -24.2775,7.40378 -29.9339,10.32328 -3.0627,1.58085 -7.6639,10.47657 -7.6639,14.81718 0,1.34018 -1.3598,3.98543 -3.0218,5.87835 -1.662,1.89291 -3.9358,6.07107 -5.0528,9.28479 -1.8293,5.26293 -1.9623,7.26691 -1.3393,20.18145 0.6339,13.14073 0.8921,14.57652 3.0914,17.19027 2.9627,3.521 10.8338,5.97142 19.1811,5.97142 l 6.0508,0 0.6866,3.66008 c 0.7407,3.94827 -0.693,5.82339 -5.346,6.99176 -1.6932,0.42515 -2.25,1.29047 -2.25,3.49641 0,1.61228 -0.9,4.69557 -2,6.85175 -1.2041,2.3603 -2,5.89377 -2,8.87957 0,4.50834 0.434,5.44394 4.7726,10.28984 10.8306,12.09666 11.2274,12.69585 11.2274,16.95191 0,2.94376 -0.8554,5.24278 -3.1279,8.40731 -3.6927,5.14194 -4.3294,5.44268 -13.0974,6.18665 -8.8592,0.75171 -10.1057,-0.21769 -9.2356,-7.18223 0.6301,-5.04278 0.5678,-5.20373 -3.4007,-8.78904 -2.2234,-2.0087 -5.8497,-4.84814 -8.0585,-6.30986 -4.273,-2.82771 -4.5876,-3.41876 -5.5532,-10.43415 -1.2617,-9.16637 -2.8312,-14.56237 -4.9007,-16.84899 -3.5633,-3.9371 -10.5828,-6.83047 -18.3853,-7.57824 -6.3398,-0.60759 -7.6154,-0.44214 -10.0708,1.30623 -1.5463,1.10107 -5.0296,2.53622 -7.7407,3.18922 -2.711,0.65301 -6.986,2.4749 -9.4998,4.04865 -6.503,4.07111 -10.1205,4.59533 -13.7714,1.99565 -1.6317,-1.16189 -3.4664,-2.11252 -4.0771,-2.11252 -2.2696,0 -5.0734,6.41408 -5.0772,11.61514 0,3.66183 -0.5945,5.86618 -2.083,7.75853 -1.9161,2.43591 -2.6029,2.62618 -8.75,2.42422 -3.9948,-0.13126 -7.9348,0.33945 -9.822,1.17344 -2.8107,1.24211 -4.1615,1.14518 -12.5,-0.89687 -13.4039,-3.28259 -13.9963,-3.71387 -19.5237,-14.21485 -3.2151,-6.10814 -6.243,-10.35384 -9.075,-12.72487 l -4.25,-3.55826 0,-17.76149 c 0,-16.25905 -0.186,-18.1444 -2.1993,-22.28824 -1.2096,-2.48971 -2.8971,-4.52481 -3.75,-4.52245 -0.8529,0.002 -3.922299,1.80237 -6.820999,4 -2.8986,2.19764 -5.8577,3.9957 -6.5757,3.9957 -1.5155,0 -5.654,-4.14248 -5.654,-5.65946 0,-0.56681 -0.8888,-1.83494 -1.9751,-2.81807 -1.7763,-1.60751 -2.8069,-1.68133 -10.2344,-0.73313 -7.555,0.96449 -8.5324,1.3526 -11.4646,4.55217 -1.763,1.92378 -3.7238,5.44644 -4.3572,7.82814 -0.6334,2.38169 -2.0704,5.83048 -3.1934,7.66396 -1.7765,2.90057 -1.8936,3.82803 -0.9014,7.13963 0.6271,2.0933 2.2621,4.54105 3.6332,5.43944 2.3702,1.55301 2.4945,2.11228 2.5247,11.36037 0.023,6.96405 0.4489,10.27832 1.5,11.66808 3.1973,4.22715 0.1917,22.07136 -5.3805,31.94488 -1.7332,3.07103 -3.1513,6.64896 -3.1513,7.95096 0,2.92442 -3.8287,8.76928 -6.6733,10.1875 -3.8263,1.9076 -5.29897,3.65894 -6.34579,7.54655 -1.22818,4.5611 -5.47338,9.92898 -7.85235,9.92898 -0.93153,0 -4.62805,-2.43564 -8.2145,-5.41254 z m -547.246741,-2.8414 c -2.22604,-2.36029 -3.73241,-5.34902 -4.67377,-9.27308 -0.94296,-3.93067 -2.85106,-7.71228 -5.94129,-11.77485 -8.23008,-10.81966 -10.97132,-15.87569 -11.0133,-20.31327 -0.0451,-4.76297 -2.75946,-8.84692 -6.50493,-9.78697 -2.90759,-0.72976 -4.77059,-3.99219 -6.51358,-11.40637 -0.68638,-2.91967 -2.36177,-6.63217 -3.72308,-8.25 -2.10034,-2.49611 -3.19531,-2.94152 -7.23125,-2.94152 -5.46412,0 -6.77144,-1.09125 -9.88843,-8.25405 -1.367,-3.14136 -2.95138,-5.08962 -4.67056,-5.74325 -8.94532,-3.40101 -38.95897,-12.0027 -41.88067,-12.0027 -1.93166,0 -5.11416,0.94524 -7.07223,2.10052 -3.30445,1.94968 -4.44578,2.04944 -15.89258,1.38922 -14.09095,-0.81274 -15.51563,-0.39559 -22.16162,6.48905 -6.5922,6.8289 -13.13526,10.02121 -20.53981,10.02121 -3.463,0 -9.11713,0.49121 -12.56473,1.09159 -5.87889,1.02376 -6.67341,1.5053 -12.78736,7.75 -3.58545,3.66212 -8.38957,9.28188 -10.67583,12.48835 l -4.15683,5.82994 -1.83218,-3.01279 c -1.98175,-3.25872 -10.78408,-10.6444 -13.84331,-11.61537 -1.03667,-0.32902 -2.44338,-1.94662 -3.12602,-3.59467 -0.68264,-1.64804 -4.55604,-5.96323 -8.60755,-9.58931 l -7.36638,-6.59288 0,-5.63403 c 0,-3.09872 -0.45209,-7.20606 -1.00464,-9.12743 -0.84984,-2.95509 -0.69209,-3.87863 1.02373,-5.9934 4.4236,-5.45214 11.56185,-15.23838 12.98091,-17.79626 0.825,-1.48708 2.77608,-4.37183 4.33573,-6.41055 1.55965,-2.03871 2.54161,-4.18264 2.18215,-4.76426 -0.35947,-0.58163 -2.42305,-1.96023 -4.58573,-3.06354 -6.54247,-3.33773 -5.82488,-4.6138 12.81785,-22.79353 18.75312,-18.28738 23.25498,-21.69405 34.75,-26.29621 10.14828,-4.06298 14.63448,-6.88775 19.87538,-12.5147 3.11174,-3.34096 5.8465,-5.07177 10.65538,-6.74372 l 6.46924,-2.24923 -0.3241,-5.87696 c -0.17826,-3.23233 -0.96576,-7.11779 -1.75,-8.63434 -1.82343,-3.52613 -1.80324,-7.22305 0.074,-13.54434 1.39356,-4.69261 1.76571,-5.09458 5.25,-5.67049 2.06257,-0.34092 5.42927,-0.62481 7.48157,-0.63086 2.5229,-0.007 7.21921,-1.77976 14.5,-5.47209 5.9227,-3.00359 12.70153,-5.95145 15.06406,-6.5508 2.71766,-0.68943 6.20724,-2.81949 9.5,-5.79884 2.86247,-2.59002 7.05441,-5.31854 9.31543,-6.06337 3.66844,-1.20847 4.40122,-1.16405 6.80761,0.41268 3.56485,2.33578 6.14787,7.60689 8.13444,16.59981 3.14603,14.24163 6.02749,25.37378 6.95711,26.87794 0.40046,0.64795 3.80271,3.16705 7.56056,5.59799 3.75785,2.43094 7.1226,4.88936 7.47722,5.46314 1.09239,1.76753 -1.66427,6.92277 -3.92447,7.33914 -8.52571,1.57059 -10.13727,2.2255 -11.50778,4.67657 -0.79748,1.42624 -1.1434,3.39206 -0.76871,4.36849 0.61863,1.61212 1.66812,1.70901 11.41716,1.05408 5.90476,-0.39667 11.33131,-1.20739 12.05901,-1.80159 0.7277,-0.5942 2.19934,-2.79797 3.27032,-4.89726 1.11415,-2.18391 2.68725,-3.82274 3.67691,-3.83055 0.95133,-0.008 2.72032,-0.27928 3.93111,-0.60393 2.90358,-0.77855 7.29857,3.84525 7.29857,7.67854 0,2.13304 -1.17309,3.70293 -5.10823,6.83614 -7.06328,5.62386 -12.70776,12.26639 -14.2688,16.79178 -1.27154,3.68614 -1.48407,3.82105 -6.48101,4.1138 l -5.16636,0.30269 -3.03346,6.00924 c -3.01124,5.96525 -3.025,6.06707 -1.87893,13.90507 0.63498,4.3427 1.68522,8.6216 2.33386,9.50866 0.77995,1.06665 3.85063,1.94449 9.06736,2.59215 9.0501,1.12357 9.53557,1.32194 9.53557,3.89637 0,1.21885 -1.70101,2.8678 -4.75,4.60462 -5.98209,3.40763 -10.25165,7.29009 -10.24442,9.31561 0.0158,4.42244 2.24613,9.14171 4.99132,10.56131 4.22956,2.18719 5.72375,1.89656 10.27413,-1.9984 2.24893,-1.925 4.71439,-3.5 5.47879,-3.5 4.47234,0 19.21468,14.26341 21.22152,20.5321 0.69864,2.18235 1.58596,4.31546 1.97181,4.74025 1.30857,1.44063 10.53875,-3.42622 14.05692,-7.41188 3.01268,-3.41299 4.27677,-4.07055 9.07774,-4.72206 6.52419,-0.88535 9.26716,-2.67231 17.49556,-11.39781 6.19539,-6.56967 9.05979,-8.11206 19.74761,-10.63353 2.65154,-0.62555 5.23904,-0.87899 5.75,-0.5632 1.75016,1.08166 1.01676,14.25734 -1.15433,20.73768 -3.09228,9.22994 -7.46752,16.38891 -10.47794,17.14448 -2.29237,0.57535 -2.5216,1.08739 -2.39733,5.35507 0.0756,2.5954 -0.18729,7.4871 -0.58415,10.87045 l -0.72156,6.15154 4.49554,4.84846 c 3.8296,4.13023 7.76074,11.73916 6.61845,12.81036 -0.19231,0.18034 -2.05574,1.03499 -4.14095,1.89922 -4.27968,1.77374 -7.5722,7.68503 -8.21954,14.75715 -0.33983,3.71261 -3.1706,8.08326 -8.99086,13.88172 -14.65522,14.6003 -20.33934,18.9625 -26.77231,20.54602 -2.32246,0.57169 -3.30867,0.11593 -6.05871,-2.79996 z m 78.78978,-54.99606 c -0.90509,-3.00494 -6.44715,-8.75 -8.44083,-8.75 -0.87528,0 -3.80759,2.25 -6.51624,5 -5.2299,5.30974 -7.173,6.08043 -8.1941,3.25 -0.34723,-0.9625 -2.64077,-3.92987 -5.09676,-6.59415 -4.37,-4.74064 -4.45218,-4.95432 -3.84597,-10 0.34069,-2.83572 0.62336,-7.078 0.62814,-9.42729 0.007,-3.59957 0.40824,-4.45349 2.54886,-5.42882 1.71689,-0.78226 3.87785,-3.85693 6.66747,-9.48661 3.79154,-7.65166 4.19264,-9.2335 4.93056,-19.445 0.57852,-8.00567 1.39547,-12.33909 2.91985,-15.48805 2.14874,-4.43869 6.15062,-8.38008 8.50871,-8.38008 0.71338,0 2.20107,-1.26958 3.30599,-2.8213 1.66038,-2.33179 1.97583,-4.21313 1.8181,-10.8432 -0.23193,-9.74869 0.64664,-11.16883 6.90956,-11.16883 2.47161,0 5.21734,-0.6 6.10162,-1.33334 3.63329,-3.0131 5.46451,-11.78511 3.30325,-15.82346 -0.54709,-1.02225 -3.6585,-3.47681 -6.91423,-5.45456 -3.25574,-1.97776 -7.36887,-5.24664 -9.14031,-7.26419 l -3.22078,-3.66828 0.53775,-9.75908 c 0.42165,-7.65196 1.10955,-11.00804 3.18597,-15.54355 3.06034,-6.68466 4.33082,-13.71733 2.66417,-14.74737 -2.2844,-1.41184 -1.15994,-3.57284 1.8591,-3.57284 4.33322,0 6.4106,-3.61491 5.78985,-10.07513 -0.26649,-2.77343 -0.88663,-5.4447 -1.3781,-5.93617 -0.49146,-0.49146 -5.84247,-1.20175 -11.89114,-1.57841 -10.08946,-0.6283 -20.25949,-3.06203 -22.89193,-5.47815 -0.52113,-0.47831 -0.37243,-2.08092 0.35634,-3.84032 1.03908,-2.50856 0.98062,-3.81207 -0.3455,-7.70401 -1.51901,-4.45804 -1.49939,-4.84119 0.40575,-7.92377 1.10107,-1.78156 2.67151,-3.79489 3.48986,-4.47407 2.41381,-2.00328 1.72364,-4.95425 -2.03862,-8.71651 -2.99507,-2.99507 -4.02363,-3.44586 -6.82506,-2.99126 -1.81419,0.29441 -6.10163,2.34701 -9.52764,4.56135 -9.99411,6.45951 -21.85035,6.91472 -29.16696,1.11986 -3.49058,-2.76459 -3.68861,-3.20534 -2.93719,-6.53705 0.97175,-4.30861 2.52097,-6.11851 9.02508,-10.54368 5.45605,-3.7121 5.78451,-4.30806 5.9978,-10.88268 0.26863,-8.2806 0.0329,-8.96427 -4.63159,-13.43365 -5.54021,-5.30846 -7.40583,-6.06072 -18.61684,-7.5067 l -8.70894,-1.12326 -8.01886,4.0318 c -4.41038,2.2175 -8.43268,4.03181 -8.93845,4.03181 -0.50577,0 -1.11055,-3.7125 -1.34395,-8.25 -0.23341,-4.5375 -0.61708,-8.89253 -0.85262,-9.67784 -0.42591,-1.42009 1.58183,-2.39099 7.38087,-3.5692 1.545,-0.3139 4.74533,-2.35548 7.11183,-4.53685 2.4303,-2.24018 5.34198,-3.98521 6.69089,-4.01 3.93408,-0.0723 9.07868,-2.3631 14.60284,-6.50235 5.08915,-3.81331 6.78353,-6.1926 9.65704,-13.56068 l 1.40668,-3.60693 7.53751,0.48373 c 12.20428,0.78322 15.6841,-0.97359 15.6841,-7.91823 0,-3.09379 0.66533,-4.67083 2.92308,-6.92857 3.62638,-3.62639 6.29241,-3.68563 14.34679,-0.31883 9.52119,3.97994 12.45867,3.62291 25.27749,-3.0723 9.71133,-5.07219 11.88817,-5.82056 18,-6.18812 7.64642,-0.45985 26.58127,2.54207 27.16974,4.30747 0.77045,2.31134 -11.01333,12.23274 -24.16842,20.3487 -18.68538,11.52785 -17.87872,10.63722 -15.57374,17.19489 1.63541,4.65272 2.39722,5.53327 6.19489,7.16049 2.38159,1.02046 6.46767,3.20487 9.08017,4.85425 5.47436,3.45618 5.99173,5.85362 3.04021,14.08817 -2.55325,7.12343 -1.4403,8.25719 7.84461,7.99122 10.64104,-0.30482 11.40103,-0.65178 15.44794,-7.05253 4.50551,-7.12607 9.29032,-12.23649 11.45686,-12.23649 0.906,0 4.26317,0.9 7.46038,2 6.84071,2.35355 11.31062,2.52379 15.90143,0.60563 7.38665,-3.08634 8.34679,-8.75904 3.09857,-18.30701 -1.925,-3.5021 -3.5,-7.57178 -3.5,-9.04372 0,-2.0247 -1.85893,-4.47002 -7.63563,-10.04424 -9.82912,-9.48459 -9.44226,-10.06706 7.21192,-10.85834 l 11.92371,-0.56652 2.81155,4.55925 c 1.54635,2.50758 3.79635,4.91828 5,5.3571 1.20365,0.43882 7.11164,0.79785 13.12887,0.79785 l 10.94041,0 3.37102,8.5 c 3.40823,8.59383 8.17197,20.3925 10.99369,27.22879 1.27837,3.09716 1.34558,4.69231 0.39677,9.41678 -0.62827,3.1284 -1.14231,7.20239 -1.14231,9.05333 0,1.85094 -0.72641,5.03838 -1.61424,7.08322 -2.31711,5.33675 -1.96367,18.16476 0.64117,23.27067 1.08519,2.12714 1.97307,4.51061 1.97307,5.29659 0,3.38675 3.43269,5.73883 9.25,6.33809 l 5.75,0.59234 0,7.34068 c 0,6.67873 -0.31521,7.83343 -3.49556,12.80512 -3.34146,5.22354 -3.70337,5.47789 -8.20926,5.76942 l -4.71369,0.30497 -2.86784,8.47086 -2.86784,8.47086 1.78414,7.86053 c 1.50211,6.61796 2.208,8.07971 4.46551,9.24712 1.47475,0.76262 4.95585,4.24497 7.73578,7.73854 6.87225,8.63648 13.2655,14.35479 16.95513,15.16517 1.68925,0.37102 5.53779,0.21864 8.55232,-0.33863 8.7939,-1.62564 19.30308,-0.3127 24.8627,3.10618 7.25323,4.46035 10.18845,5.01042 19.51859,3.65788 6.9905,-1.01337 9.15929,-0.95347 14.5,0.40054 3.45401,0.87568 7.47571,1.8442 8.93712,2.15228 1.4614,0.30808 3.32485,0.81638 4.14099,1.12956 0.84205,0.32313 2.9368,-0.70488 4.8429,-2.37667 1.84746,-1.62035 5.83147,-4.40284 8.85337,-6.18329 l 5.49436,-3.23719 6.77674,2.18259 c 7.9593,2.56346 10.35816,4.78357 11.25764,10.41875 0.363,2.27421 1.78931,6.56574 3.16957,9.53674 1.99599,4.29636 2.32874,6.03586 1.62597,8.5 -0.80549,2.82431 -1.29358,3.12484 -5.52145,3.39972 -5.79602,0.37684 -7.08759,1.90641 -6.94524,8.22509 0.10197,4.52593 -0.25764,5.38912 -3.74018,8.97763 -3.4518,3.55685 -4.02455,4.90797 -5.50061,12.97594 -0.90618,4.95313 -2.17649,10.16647 -2.82291,11.5852 -0.676,1.48364 -5.47398,5.45397 -11.2938,9.34561 -9.3159,6.22941 -10.83882,6.89788 -19.1998,8.42754 -4.99473,0.9138 -10.43463,1.66145 -12.08869,1.66145 -3.02309,0 -11.77254,-3.56547 -14.68892,-5.98586 -2.50357,-2.07777 -18.428,-6.21173 -25.51704,-6.62418 -4.45182,-0.25902 -8.07552,0.17139 -11.5,1.36593 l -5,1.74411 -0.62167,5.5 c -0.88762,7.85287 -2.4819,10.62422 -7.19721,12.51091 -2.226,0.89067 -5.29712,2.67108 -6.82471,3.95646 -2.67963,2.25476 -8.662,4.81532 -13.85641,5.93078 -2.92474,0.62807 -24.7707,13.50076 -30.2913,17.84909 -4.50189,3.54594 -7.04801,3.34019 -15.94123,-1.28824 -3.16583,-1.64763 -7.76027,-3.2704 -10.20987,-3.60616 -4.73172,-0.64855 -6.15207,0.31119 -12.08025,8.1627 -1.57313,2.08352 -3.12884,2.79747 -7,3.21246 -6.21649,0.66642 -7.47735,1.6538 -7.47735,5.85549 0,6.85332 -4.87084,8.59549 -17.51694,6.26536 -8.59715,-1.58409 -17.89011,0.71585 -25.21267,6.23995 -4.35597,3.28613 -9.13792,5.9112 -10.7681,5.9112 -0.20213,0 -0.67248,-1.0125 -1.04522,-2.25 z m -86.39792,-44 c -2.17051,-6.43655 -18.23824,-20.75 -23.29316,-20.75 -1.39992,0 -3.76527,1.43578 -5.76599,3.5 -5.1,5.26187 -9.80552,4.1623 -11.51567,-2.69094 -0.77367,-3.10036 0.91166,-4.99527 9.01567,-10.13683 4.17171,-2.64673 5.05348,-3.73168 5.32284,-6.54939 0.17757,-1.85743 -0.0679,-3.76792 -0.54552,-4.24552 -0.4776,-0.4776 -4.52715,-1.38578 -8.99899,-2.01818 -4.47185,-0.63241 -8.64038,-1.46486 -9.2634,-1.84991 -0.62302,-0.38505 -1.61604,-3.95622 -2.20671,-7.93593 -0.99347,-6.69358 -0.90296,-7.60094 1.20779,-12.10748 2.25248,-4.80913 2.34719,-4.87544 7.38287,-5.16872 l 5.10112,-0.2971 2.62334,-5.50014 c 1.8464,-3.87119 5.20924,-7.92691 11.35467,-13.69415 l 8.73133,-8.19402 -0.63469,-5.80584 -0.63469,-5.80585 5.44926,-6.7163 c 6.3357,-7.80884 8.61078,-14.24793 8.61078,-24.37079 l 0,-6.77927 -6.83204,-6.56682 c -7.71496,-7.41546 -9.66634,-10.16181 -10.51847,-14.80362 -0.46259,-2.51984 -0.11557,-3.68272 1.56671,-5.25 1.18851,-1.10726 2.92135,-2.0132 3.85075,-2.0132 2.02407,0 8.71187,8.50631 12.25714,15.59002 4.12048,8.23303 10.80219,13.09526 16.8242,12.24286 2.75058,-0.38934 7.67051,-7.22345 9.76149,-13.55936 1.35027,-4.09151 1.30213,-4.36017 -1.50748,-8.41235 -2.53635,-3.65808 -2.9023,-5.07955 -2.9023,-11.27352 l 0,-7.08765 8.98615,-1.27473 c 7.69589,-1.0917 9.83619,-1.84552 14.90629,-5.25 6.89252,-4.62821 8.80608,-4.86766 12.15301,-1.52072 3.13968,3.13967 3.09183,3.73576 -0.62082,7.73373 -2.84604,3.06475 -3.02662,3.68459 -2.42158,8.31172 0.87927,6.72432 0.88742,9.35785 0.0418,13.5 l -0.71454,3.5 6.94446,2.23578 c 4.25666,1.37044 10.96596,2.48754 17.33484,2.88625 5.71471,0.35776 10.95289,1.09425 11.64039,1.63666 0.6875,0.54241 1.25,2.676 1.25,4.74131 0,4.29032 -1.24139,5.68102 -5.5,6.16151 -2.46233,0.27783 -3.05882,0.85319 -3.32818,3.21031 -0.1805,1.5795 0.157,3.357 0.75,3.95 1.7223,1.7223 1.26096,5.38397 -1.32006,10.47737 -2.70178,5.33169 -5.19902,21.71124 -4.31499,28.3022 0.61194,4.5623 4.47115,8.60667 13.50335,14.1512 5.70985,3.50507 6.82188,5.67161 5.77509,11.25149 -0.8158,4.3486 -4.71056,6.67115 -9.80166,5.84497 -5.31938,-0.86321 -6.76355,1.88557 -6.76355,12.87346 0,7.44416 -0.30381,9.0813 -2,10.77749 -1.1,1.1 -2.64959,2 -3.44354,2 -0.79394,0 -2.93144,1.81041 -4.75,4.02313 -3.90711,4.75398 -11.70321,9.45683 -17.30646,10.4398 -6.04895,1.06116 -13.73654,5.9278 -18.88692,11.95639 -5.17998,6.06323 -11.41191,9.58068 -16.97426,9.58068 -3.65629,0 -8.63882,3.41953 -8.63882,5.92887 0,1.31929 -5.32153,4.07113 -7.87279,4.07113 -1.33346,0 -2.32702,-1.05247 -3.06806,-3.25 z m 381.94085,-23.86365 c -1.375,-0.54278 -4.15128,-2.12535 -6.1695,-3.51683 -5.30014,-3.6542 -6.99273,-11.65086 -5.37198,-25.37989 0.60714,-5.14296 0.41582,-7.34833 -0.91089,-10.5 -2.03502,-4.8343 -3.54221,-12.34017 -2.84353,-14.1609 0.32719,-0.85265 2.25043,-1.32873 5.36771,-1.32873 5.3385,0 6.18908,-0.81722 7.28575,-7 0.45633,-2.57264 -0.0206,-4.87813 -1.79979,-8.70127 -1.33134,-2.8607 -2.71379,-7.15637 -3.07213,-9.54593 l -0.65152,-4.34466 5.04187,-2.74413 c 5.92911,-3.22703 9.11937,-6.9107 9.13588,-10.54887 0.007,-1.43833 0.66584,-5.07257 1.46513,-8.07609 1.48172,-5.56786 0.84117,-11.54001 -2.47038,-23.03245 -0.55364,-1.92137 -1.00662,-5.37621 -1.00662,-7.67742 0,-3.33998 0.5371,-4.6065 2.66248,-6.27833 1.46437,-1.15187 3.82687,-2.33702 5.25,-2.63367 7.1266,-1.48552 8.6506,-2.91696 11.42451,-10.73064 1.46466,-4.1257 2.66301,-7.99296 2.66301,-8.59391 0,-2.39388 4.06475,-1.04891 5.00888,1.65737 2.68913,7.7082 6.85423,10.20107 17.10033,10.23482 3.965221,0.0131 5.263251,0.59089 9.290311,4.13565 l 4.68109,4.12046 5.7097,-1.53034 c 3.14033,-0.84169 8.50212,-1.81598 11.91508,-2.16508 7.38294,-0.75518 9.53982,0.71202 11.24857,7.65174 1.87888,7.63068 3.21761,9.31639 7.30133,9.1938 2.64989,-0.0795 5.31477,-1.36141 9.87476,-4.75 4.36316,-3.24231 7.20518,-4.64105 9.42988,-4.64105 2.93279,0 3.23415,0.31077 3.81325,3.93229 1.16515,7.28643 -0.6843,9.6634 -11.72371,15.06771 l -7.14947,3.5 -0.5374,5.5 c -0.68956,7.05739 -2.84351,10.99365 -7.81672,14.28476 -3.47912,2.30238 -4.1432,3.37199 -5.23148,8.42618 -1.90648,8.85412 -4.28672,12.9268 -8.33595,14.26317 -2.88975,0.9537 -3.89462,0.86484 -6.02814,-0.5331 -3.34927,-2.19453 -4.77524,-0.98989 -6.41865,5.42232 -1.44868,5.65249 -2.95085,7.29965 -8.77024,9.61679 -3.48368,1.38711 -4.41203,2.38942 -5.86656,6.33388 -0.95038,2.5773 -3.06406,7.10998 -4.697071,10.07263 -3.5466,6.43433 -3.26767,9.98876 1.22776,15.64552 3.793361,4.77333 3.984161,9.54905 0.519901,13.0133 -1.350001,1.35 -2.920301,2.45455 -3.489571,2.45455 -0.56927,0 -5.48787,-1.29062 -10.93023,-2.86804 -8.74802,-2.53553 -10.5517,-2.75493 -15.55785,-1.89244 -6.58457,1.13444 -8.0062,2.74848 -9.03733,10.26048 -1.21361,8.84143 -4.43757,11.18628 -11.53047,8.38635 z m -433.50001,-75.88636 c -1.15482,-1.86854 1.19214,-3.42182 6.79934,-4.49999 4.63386,-0.89101 5.40224,-1.4126 7.05011,-4.78575 2.71347,-5.5544 1.67085,-7.56561 -6.81488,-13.14591 -7.65542,-5.03429 -8.39278,-6.0878 -10.0521,-14.3619 -0.61886,-3.08588 -0.22927,-3.70065 6.17852,-9.74975 3.76146,-3.55091 8.86402,-7.65233 11.33902,-9.11426 2.475,-1.46194 7.0361,-4.83705 10.13579,-7.50025 8.98593,-7.72057 10.32866,-6.49365 9.71486,8.87692 -0.292,7.31221 -0.8433,9.75319 -3.29608,14.59397 -2.72326,5.3746 -2.84314,6.05346 -1.58925,9 1.59322,3.74394 1.45373,12.05847 -0.26129,15.57578 -0.66222,1.35812 -2.55403,3.2102 -4.20403,4.11573 -1.65,0.90553 -3.99292,3.41244 -5.20648,5.57092 -2.11307,3.75833 -2.47296,3.95269 -8.5,4.59028 -3.46144,0.36619 -7.25523,0.96789 -8.43066,1.33712 -1.24931,0.39244 -2.43863,0.18352 -2.86287,-0.50291 z m 373.50001,-10.2424 c -6.60541,-1.79429 -8.30735,-1.90134 -14.26856,-0.89744 -9.87123,1.66235 -10.71339,1.52846 -17.9898,-2.86015 -4.4136,-2.66197 -7.81482,-4 -10.16781,-4 -3.9235,0 -4.39579,-0.9437 -4.34244,-8.67687 0.0192,-2.78119 -0.68295,-5.08174 -2.10129,-6.88486 -1.17155,-1.48939 -2.1301,-3.14075 -2.1301,-3.66968 0,-0.52893 1.8184,-3.0275 4.04089,-5.55238 3.64518,-4.14115 4.01941,-5.06156 3.82149,-9.39899 -0.27004,-5.91815 2.39537,-9.28301 8.07245,-10.19081 3.03251,-0.48492 4.77586,-1.74265 8.56792,-6.1813 4.55536,-5.33212 4.73652,-5.77704 4.19925,-10.31346 -0.30883,-2.60753 -0.22397,-5.28708 0.18856,-5.95457 1.06581,-1.72452 6.75091,-3.1718 12.60284,-3.20835 3.24448,-0.0203 6.76639,-0.89695 10.0066,-2.49086 6.22415,-3.06176 7.69211,-3.07686 11.13606,-0.11449 2.28118,1.96218 2.76706,3.22214 2.86232,7.4223 0.0849,3.74208 1.07614,6.89419 3.80817,12.10949 2.0314,3.87782 3.69345,7.97862 3.69345,9.11289 0,1.13427 0.65372,3.06001 1.45272,4.27943 1.20363,1.83698 1.25985,3.34309 0.32785,8.78406 -1.09288,6.38017 -1.01629,6.88413 2.69279,17.7199 4.29839,12.55741 4.31704,12.45896 -3.07994,16.26337 -2.54905,1.31102 -5.30711,3.41001 -6.12903,4.66443 -1.89441,2.89123 -6.72244,2.90195 -17.26439,0.0383 z m -340.3421,-1.43302 c -0.37149,-0.37149 -0.38348,-4.17619 -0.0267,-8.45488 0.43567,-5.22395 0.24931,-8.74385 -0.56729,-10.7153 -1.03737,-2.50443 -0.92632,-3.50383 0.75564,-6.80075 1.08444,-2.12569 2.50108,-5.83081 3.14809,-8.23361 0.647,-2.40279 1.59276,-5.46391 2.10169,-6.80248 0.92317,-2.42812 0.93261,-2.42957 4.06982,-0.62566 4.39791,2.52883 8.86336,8.94175 8.84894,12.70815 -0.015,3.91062 -2.18945,12.15843 -4.26116,16.16262 -2.09969,4.05835 -10.58222,13.43734 -12.15293,13.43734 -0.68237,0 -1.54461,-0.30395 -1.9161,-0.67543 z m 382.8421,-4.18724 c -4.50164,-2.33914 -7.81353,-4.86562 -9.27937,-7.0788 -2.69807,-4.07363 -6.66818,-16.52536 -5.74514,-18.01887 0.42146,-0.68194 6.88931,-0.93291 18.66292,-0.72417 19.95746,0.35383 20.36153,0.49305 19.40027,6.68451 -2.01357,12.96943 -2.50394,15.25322 -3.54435,16.50683 -1.6417,1.97813 -9.58697,6.51563 -11.1724,6.3805 -0.72706,-0.062 -4.47193,-1.74947 -8.32193,-3.75 z m -113,-2.93636 c -1.65,-1.03369 -5.21338,-4.53928 -7.91861,-7.7902 -2.70524,-3.25093 -7.28651,-8.38577 -10.18061,-11.41077 -4.54805,-4.75377 -5.41382,-6.31407 -6.38111,-11.5 -1.012,-5.42573 -0.89503,-6.62213 1.22217,-12.5 l 2.3413,-6.5 4.89741,-0.56694 c 2.69357,-0.31181 5.04785,-1.01826 5.23172,-1.56987 0.18387,-0.55162 1.85548,-3.36404 3.71469,-6.24983 3.25781,-5.05663 3.37481,-5.57987 3.22671,-14.43012 l -0.15367,-9.18324 -5.46969,-0.30988 c -3.00832,-0.17043 -6.0333,-0.77764 -6.72218,-1.34935 -0.68887,-0.57172 -2.44275,-3.58227 -3.89751,-6.69013 -3.35322,-7.16359 -4.24627,-17.77354 -1.8921,-22.47918 0.87265,-1.7443 2.01495,-6.54646 2.53845,-10.67146 0.5235,-4.125 1.21628,-8.91643 1.53951,-10.64762 0.39108,-2.09461 -0.1122,-4.72982 -1.5044,-7.87711 -1.15064,-2.60123 -2.09208,-5.15017 -2.09208,-5.66431 0,-0.51415 -1.12056,-3.30347 -2.49012,-6.1985 -3.28493,-6.94377 -4.09752,-11.13125 -2.36751,-12.20045 0.73913,-0.45681 5.17196,-0.89114 9.85075,-0.96519 4.67878,-0.074 9.45109,-0.43853 10.60512,-0.80995 2.11152,-0.67959 4.40176,-4.44323 4.40176,-7.23358 0,-0.82644 0.68656,-2.83026 1.52568,-4.45295 1.24535,-2.40824 2.16405,-2.95034 5,-2.95034 4.14732,0 7.47432,2.89985 7.47432,6.5147 0,1.76395 0.97026,3.10628 3.25,4.49626 4.51853,2.755 7.29215,2.48558 10.40758,-1.01096 3.16948,-3.5572 5.39663,-3.75913 9.33618,-0.84649 1.60203,1.18443 4.28237,2.11457 5.95632,2.06697 2.23058,-0.0634 4.44346,1.10842 8.28457,4.38714 5.6318,4.80721 9.17567,6.25411 11.58925,4.73167 0.83288,-0.52538 2.99903,-4.48502 4.81366,-8.79921 6.11853,-14.54654 10.58121,-16.22609 16.04888,-6.04008 1.77139,3.3 3.24599,7.125 3.2769,8.5 0.0309,1.375 1.1768,4.90718 2.54643,7.8493 1.36963,2.94211 2.49023,6.61002 2.49023,8.15091 0,1.74631 1.64259,5.00486 4.36071,8.65071 2.39839,3.21699 4.88418,6.85214 5.52396,8.07811 0.76812,1.47187 3.02731,2.77093 6.65091,3.82434 5.81493,1.69044 11.46442,5.66473 11.46442,8.06494 0,0.79229 -1.7832,3.69645 -3.96267,6.45369 -4.04369,5.11564 -5.45991,9.33904 -4.86899,14.52007 0.35457,3.10882 1.3405,3.3257 8.45841,1.86067 2.75305,-0.56664 3.88846,0.002 9.5,4.75748 3.50529,2.97057 7.2049,7.14975 8.22137,9.28707 1.77348,3.7291 1.77585,3.93889 0.0589,5.19438 -2.38702,1.74543 -6.331,1.64991 -12.05034,-0.29186 -4.31272,-1.46421 -4.99693,-1.46491 -8.05153,-0.008 -2.78274,1.327 -4.06428,1.39774 -7.70092,0.42509 -3.84619,-1.0287 -4.9612,-0.90934 -9.4188,1.00827 -3.78265,1.62725 -7.05914,2.1751 -13.00851,2.1751 -6.77958,0 -8.91685,0.45135 -14.49253,3.06052 -4.56051,2.13412 -8.98219,3.3067 -14.60777,3.87382 -4.43717,0.44732 -8.74461,1.37518 -9.57209,2.06192 -1.03724,0.86084 -1.50781,3.1517 -1.51517,7.37618 -0.0102,5.8421 -0.21475,6.34885 -4.39157,10.87756 -3.29854,3.57644 -5.10042,4.75 -7.29317,4.75 -1.98142,0 -3.93383,1.054 -6.10842,3.29761 -2.74299,2.83005 -3.19617,4.01814 -3.19617,8.37942 0,4.57515 -0.3988,5.49274 -4,9.20353 -4.62888,4.76975 -4.93757,7.14004 -1.57134,12.06569 2.01596,2.94985 2.33424,4.35633 1.873,8.27667 -0.63053,5.35924 -0.62468,5.35587 -10.80166,6.24555 -5.826,0.50931 -7.50314,0.29673 -10,-1.2675 z m 241.292031,-9.06885 c -2.58938,-0.3931 -5.04152,-1.04828 -5.4492,-1.45596 -1.06259,-1.06259 -0.36586,-9.93379 0.90044,-11.46485 0.58621,-0.70878 3.18212,-2.19909 5.76868,-3.3118 2.58656,-1.11271 6.3916,-3.75255 8.45564,-5.86632 l 3.75281,-3.84322 -0.62463,-8.34499 c -0.34355,-4.58974 -0.58725,-13.06998 -0.54156,-18.84498 0.0936,-11.83569 -1.92282,-18.37344 -6.61533,-21.44809 -3.76823,-2.46904 -6.43888,-5.35505 -6.43888,-6.9581 0,-0.77341 2.22947,-3.00792 4.95438,-4.96557 2.72492,-1.95765 5.62362,-4.58737 6.44157,-5.84381 1.38039,-2.12038 3.19515,-9.35553 5.71492,-22.78443 1.98898,-10.60009 3.96932,-16.00643 6.46122,-17.63919 3.31285,-2.17066 6.8896004,-1.07462 8.4010704,2.57439 0.75943,1.83343 3.86212,4.74515 8.14932003,7.64773 6.66114997,4.50981 7.12442997,4.66341 12.24873957,4.06115 5.38571,-0.63298 13.69591,1.26762 16.32528,3.73372 1.77844,1.668 3.70948,9.88146 2.98144,12.68125 -0.3491,1.34252 -2.48976,4.87244 -4.75702,7.84427 -3.66651,4.80589 -4.02316,5.74571 -3.22569,8.5 0.8104,2.79894 1.27679,3.09308 4.85069,3.05919 2.17474,-0.0206 5.81121,-0.38832 8.08104,-0.81711 3.95461,-0.74706 4.21561,-0.63626 6.24861,2.6533 1.8232,2.94992 2.1833,5.38634 2.5596,17.31711 0.2408,7.6363 0.9171,15.45866 1.5029,17.38301 1.0056,3.30367 0.874,3.66621 -2.36,6.5 -1.8838,1.65065 -4.1437,4.45926 -5.02216,6.24137 -1.80287,3.65761 -7.93625,7.25981 -12.36108,7.25981 -1.66169,0 -3.69156,0.8914 -4.78748,2.10238 -1.04645,1.15631 -3.11151,2.72752 -4.58904,3.49157 -2.50423,1.295 -2.82838,1.20871 -4.78002,-1.2724 -1.6733,-2.12726 -3.1423396,-2.74856 -7.3175396,-3.0948 -6.27527997,-0.5204 -7.30702,0.3676 -11.1731,9.61649 -3.98332,9.52938 -6.5627604,13.01369 -10.5476504,14.2478 -4.49926,1.3934 -17.14924,1.96087 -23.20797,1.04108 z M -182.17857,447.87779 c -2.51588,-0.9837 -2.68818,-1.92954 -1.25919,-6.91214 0.80847,-2.81898 0.62444,-4.15762 -1,-7.27419 -1.09495,-2.1007 -1.99081,-4.64162 -1.99081,-5.6465 0,-1.00488 -1.58548,-4.86884 -3.5233,-8.58657 -2.84485,-5.45791 -3.39811,-7.42681 -2.87317,-10.22497 0.50289,-2.68061 0.15808,-4.13099 -1.52248,-6.40406 -1.19493,-1.61624 -1.90045,-3.37897 -1.56781,-3.91718 0.33264,-0.53822 2.81913,-0.97858 5.52554,-0.97858 2.70641,0 6.744,-0.72952 8.97242,-1.62116 3.46032,-1.38454 4.70826,-1.43733 8.55022,-0.36164 3.90765,1.09407 5.00446,1.03137 8.35023,-0.47736 3.10158,-1.39862 4.27952,-1.50789 6.04859,-0.56112 1.20829,0.64666 4.41154,1.83342 7.11833,2.63725 2.70679,0.80383 4.92143,1.83948 4.92143,2.30145 0,2.0306 5.72562,3.23355 9.9616,2.09292 3.49511,-0.94114 4.61134,-0.86495 6.62111,0.4519 1.32951,0.87113 2.41066,1.68599 2.40256,1.81081 -0.13291,2.04818 -4.05095,12.32278 -5.21951,13.68755 -0.86785,1.01358 -3.98268,2.54228 -6.92184,3.3971 -8.92042,2.59441 -9.30436,3.13556 -8.97979,12.65668 0.15442,4.5301 0.67378,9.27023 1.15412,10.53362 1.53675,4.04196 -0.79337,4.80393 -12.28106,4.01601 -5.63046,-0.38618 -11.36219,-0.77281 -12.73719,-0.85917 -1.375,-0.0864 -3.625,0.1301 -5,0.48104 -1.375,0.35093 -3.5125,0.24217 -4.75,-0.24169 z m -407.15338,-2.19419 c -0.46964,-1.2375 -1.41058,-4.95 -2.09099,-8.25 -0.68041,-3.3 -2.08088,-7.66143 -3.11214,-9.69207 -1.85678,-3.65613 -7.53583,-8.80793 -9.70937,-8.80793 -2.63892,0 -11.91392,4.98643 -14.60122,7.84991 -2.04046,2.17424 -5.34614,3.88717 -11,5.69995 -4.44559,1.42538 -9.6579,3.66375 -11.5829,4.97416 -5.62358,3.82814 -12.23117,6.36815 -18.47522,7.10201 l -5.81714,0.68369 0.66607,-2.90486 c 1.99616,-8.70556 1.87636,-9.7244 -1.80754,-15.37114 -4.90727,-7.52194 -4.76983,-10.67375 0.68383,-15.68151 6.51629,-5.98349 10.61842,-8.05967 18.25,-9.23671 8.96142,-1.38215 27.33617,-7.67137 30.21327,-10.34125 1.2173,-1.12963 2.82467,-3.90345 3.57193,-6.16406 1.167,-3.53037 2.26545,-4.60537 7.78673,-7.62043 7.70205,-4.20593 8.84017,-7.05242 4.27594,-10.69435 -3.80165,-3.03344 -2.33326,-5.43054 4.1864,-6.83416 2.65369,-0.57131 4.92972,-1.47131 5.05784,-2 0.12812,-0.52869 0.49799,-2.16728 0.82192,-3.64132 0.85597,-3.89501 2.67885,-5.30419 10.81008,-8.35674 8.26172,-3.10154 12.23692,-6.30006 13.83033,-11.12814 0.83221,-2.52164 1.67379,-3.33505 3.45053,-3.33505 5.30513,0 9.37872,10.6091 7.48744,19.5 -1.7238,8.10361 -1.73401,8.02521 1.00759,7.73916 1.375,-0.14346 6.76689,-2.31204 11.98198,-4.81906 l 9.48198,-4.55823 8.50925,1.26597 c 6.70585,0.99767 9.38598,1.91302 12.64613,4.31906 6.08293,4.48932 7.44351,7.22683 6.7023,13.48514 -0.57498,4.85481 -0.9796,5.49233 -5.72019,9.01278 -6.75603,5.01714 -8.06494,6.59318 -11.01427,13.26213 -2.1003,4.74916 -4.3665,7.26858 -14.36127,15.96602 -16.86213,14.6734 -27.92822,23.64297 -33.87363,27.4561 -2.83125,1.81585 -7.47374,5.56715 -10.31666,8.33623 -2.84291,2.76909 -5.60007,5.0347 -6.12703,5.0347 -0.52695,0 -1.34234,-1.0125 -1.81197,-2.25 z m 69.40338,-5.61056 c -3.86423,-2.38691 -6.07393,-5.00999 -6.85673,-8.13944 -0.34395,-1.375 -3.30683,-5.83423 -6.58419,-9.9094 -6.36662,-7.91648 -6.55912,-9.19963 -1.84969,-12.32988 1.25984,-0.83738 4.67957,-3.82611 7.59942,-6.64161 2.91984,-2.81551 6.07981,-5.11911 7.02215,-5.11911 0.94235,0 3.32235,1.32628 5.28891,2.94728 3.43585,2.83212 3.60034,3.26857 4.20965,11.17 0.50963,6.60863 1.15113,8.96879 3.26803,12.02349 3.06355,4.4207 2.85544,6.19704 -1.53585,13.10923 -3.38891,5.33439 -5.61679,5.94389 -10.5617,2.88944 z m 611.987571,-7.17733 c -3.2932,-1.72448 -7.207,-3.79536 -8.6974,-4.60195 -1.8219,-0.98605 -7.3277,-1.66402 -16.805,-2.06935 -13.907,-0.59478 -14.1127,-0.63746 -15.406,-3.19682 -2.5504,-5.04699 -3.8999,-13.72649 -3.8136,-24.52802 0.07,-8.79414 -0.2754,-11.64501 -1.766,-14.5669 -2.6155,-5.12666 -4.3937,-6.33893 -8.24041,-5.61759 -9.742,1.82685 -10.4564,1.84989 -11.02977,0.35571 -0.32269,-0.84091 1.11763,-3.81951 3.31794,-6.86158 3.5546,-4.91445 3.8906,-5.93323 3.91668,-11.87561 0.0377,-8.6038 -2.08471,-12.17165 -8.5515,-14.37511 -2.62283,-0.89369 -7.68673,-1.62489 -11.2531,-1.62489 -5.5046896,0 -7.1932996,-0.45496 -11.1772096,-3.01143 -5.1559,-3.30853 -7.7221,-5.82791 -9.41726,-9.24546 -0.87347,-1.76095 -2.1136,-2.30802 -5.7693604,-2.54507 -3.96221,-0.25692 -5.18313,-0.88461 -8.1862,-4.20865 -2.2401,-2.47952 -4.11705,-6.02238 -5.13789,-9.69805 -0.88463,-3.18524 -1.78849,-6.35384 -2.00857,-7.04134 -0.62112,-1.94028 -5.60204,-1.48784 -14.2191,1.29159 -6.50078,2.09682 -9.44275,2.49056 -16.81175,2.25 l -8.93207,-0.29159 0.21825,-2.96899 c 0.12003,-1.63294 1.06464,-4.10264 2.09913,-5.48823 1.6745,-2.24281 2.6381,-2.53157 8.78175,-2.63164 14.08931,-0.22949 22.26978,-4.26751 26.47311,-13.06756 1.61733,-3.38603 4.53699,-7.75281 6.48813,-9.70395 3.19422,-3.19422 3.48284,-3.92559 2.89795,-7.34358 -0.35727,-2.08783 -2.18155,-6.33888 -4.05395,-9.44678 -1.8724,-3.1079 -3.40437,-6.00332 -3.40437,-6.43427 0,-0.87907 2.96366,-7.64497 6.29399,-14.36893 1.78665,-3.60724 3.3466,-5.03297 8.20601,-7.5 7.2484704,-3.67989 8.0464404,-6.23155 4.0704704,-13.01604 -1.4137604,-2.41239 -2.5704704,-4.87515 -2.5704704,-5.4728 0,-0.59764 1.4625,-1.97833 3.2500004,-3.06819 4.28894,-2.61502 11.39963,-2.60974 14.75,0.011 3.5067,2.74298 5.2186996,2.49467 9.9282096,-1.44002 3.79263,-3.16866 4.37202,-3.35281 7.34462,-2.33447 1.77494,0.60805 4.12717,1.65249 5.22717,2.32097 1.1,0.66847 4.25888,1.46051 7.01974,1.76008 2.76086,0.29957 7.32623,1.70314 10.14523,3.11905 2.819,1.41592 6.265,2.57439 7.6577,2.57439 3.1555,0 6.3048,-3.82622 7.7207,-9.38055 1.5675,-6.14879 3.0795,-9.61945 4.1908,-9.61945 0.5453,0 3.8314,2.925 7.3023,6.5 7.8509,8.08617 10.4301,8.42468 13.8169,1.81341 2.2248,-4.34296 3.2854,-4.78492 6.4406,-2.68384 3.7596,2.50352 11.844199,5.42097 17.205999,6.20903 l 4.5,0.6614 -0.043,5.25738 c -0.057,6.9587 -1.3888,8.10781 -10.5926,9.13998 -8.706199,0.97637 -10.427999,1.76134 -17.864299,8.14478 -9.0966,7.80867 -9.9119,8.04283 -25.4154,7.2993 l -13.5331,-0.64903 -2.7757,3.23233 c -1.5267,1.77778 -5.13827,5.89308 -8.02577,9.14511 -6.75116,7.60345 -7.07625,10.08614 -2.06763,15.79064 2.38821,2.72002 2.88031,4.03328 2.44413,6.52262 -0.30037,1.71429 -0.84144,5.87717 -1.20236,9.25085 -0.57932,5.41514 -0.40824,6.38194 1.45982,8.25 1.72507,1.72507 3.32934,2.11604 8.68271,2.11604 5.3723,0 7.1458,0.43521 9.75,2.39261 6.245,4.69384 28.2522,10.68538 33.9734,9.24942 5.6707,-1.42324 11.530699,-10.63162 14.160399,-22.25126 0.8577,-3.78992 2.3078,-8.59444 3.2225,-10.6767 1.5514,-3.53162 1.5511,-4.02091 0,-7.28393 -2.2182,-4.65148 -2.1489,-5.19403 1.3319,-10.43014 1.6453,-2.475 2.9934,-5.6475 2.9957,-7.05 0.01,-4.17269 1.4891,-4.79619 10.0118,-4.21203 7.4141,0.50817 7.9415,0.40392 10.4013,-2.05587 3.2343,-3.23433 3.5147,-8.53641 0.5912,-11.1821 -2.6458,-2.39438 -2.5317,-5.65184 0.2907,-8.30336 1.9538,-1.83551 3.0935,-2.07231 7.75,-1.61017 11.1357,1.1052 11.8397,1.7368 8.8896,7.97522 -2.7055,5.72111 -2.4367,6.80273 2.7862,11.21129 4.3483,3.67024 4.6278,4.17595 3.5797,6.4763 -0.6565,1.44084 -3.1777,3.45545 -5.9665,4.76772 -7.051,3.31772 -12.3297,8.65807 -12.3297,12.47354 0,2.39419 -1.1415,4.19541 -5.0995,8.04705 -3.8837,3.77927 -6.403,7.70425 -10.5664,16.46241 -3.0068,6.325 -7.0713,14.60366 -9.0323,18.39702 -3.4456,6.66528 -3.5467,7.16928 -3.0099,15 0.3055,4.45664 1.7148,11.89478 3.1318,16.52921 3.391,11.09086 3.315,14.84317 -0.4237,20.91935 -3.5577,5.78203 -3.6108,6.74939 -0.9565,17.43092 2.2068,8.88087 3.7239,12.22044 8.112,17.85754 2.4036,3.08774 2.6134,3.81283 1.3958,4.82339 -2.1166,1.75658 -11.1419,15.30115 -14.1456,21.22862 -1.9523,3.85278 -2.4649,6.04786 -2.0386,8.7304 1.1401,7.17412 -3.1289,8.62795 -11.879499,4.04566 z m -148.44001,-4.8024 c -1.12042,-3.76216 -2.8624,-7.58716 -3.87108,-8.5 -2.83252,-2.56339 -15.34239,-2.10645 -25.36915,0.92664 -1.03095,0.31186 -3.18108,-0.82541 -5.5,-2.90914 -3.2241,-2.89709 -4.72644,-3.49218 -9.807331,-3.88476 -9.42235,-0.72802 -13.20662,-2.8198 -15.6238,-8.63618 l -2.041,-4.91119 -8.74743,-0.6843 c -4.81109,-0.37637 -9.95486,-0.38126 -11.43059,-0.0109 -2.62883,0.65982 -5.65718,-0.78219 -5.65718,-2.69376 0,-0.49445 1.125,-1.41158 2.5,-2.03807 3.19057,-1.45373 3.14359,-2.27462 -0.51698,-9.03314 -1.95138,-3.60284 -4.86529,-6.96329 -8.25,-9.51429 -7.70517,-5.80724 -9.49496,-6.5643 -13.86628,-5.8653 -3.71045,0.59332 -3.86531,0.50668 -3.8313,-2.1435 0.0699,-5.45049 7.42476,-14.50835 13.73839,-16.91955 4.30501,-1.6441 4.53705,-1.6376 5.85443,0.16402 0.75446,1.03178 1.37174,2.94454 1.37174,4.25058 0,6.10455 3.36402,7.47539 12.40835,5.0564 3.81816,-1.0212 4.99693,-0.93426 8.45096,0.62329 3.25666,1.46855 5.29926,1.67425 10.82729,1.09037 6.44876,-0.68113 7.04793,-0.96869 11.19562,-5.37329 6.762811,-7.18167 12.117781,-14.6259 12.117781,-16.84557 0,-1.1056 -1.15116,-4.17523 -2.55814,-6.82138 l -2.55813,-4.8112 5.72904,-5.78945 c 3.15097,-3.18419 7.6329,-6.79944 9.95984,-8.03388 4.0697,-2.15897 4.54073,-2.19411 12.36967,-0.92271 10.40884,1.69036 22.30033,0.71484 30.94353,-2.53845 7.51422,-2.82834 7.95671,-2.60968 9.8327,4.85888 0.72531,2.88757 2.68027,7.20401 4.34434,9.59209 l 3.02559,4.34198 -1.64301,5.65176 c -0.90366,3.10847 -1.98763,7.67958 -2.40882,10.15803 -1.80376,10.61383 -4.38001,21.69263 -5.60294,24.09459 -0.72481,1.42358 -3.81889,4.31088 -6.87575,6.41622 -7.59307,5.22955 -7.63146,7.91241 -0.21371,14.93555 8.01775,7.59121 9.14048,10.77211 7.84072,22.21428 -0.58322,5.13431 -1.30577,9.73213 -1.60567,10.21737 -0.29989,0.48524 -2.5512,1.38736 -5.00291,2.00471 -2.4517,0.61734 -4.75428,1.60241 -5.11683,2.18904 -1.23665,2.00093 -8.75472,6.9345 -10.56721,6.9345 -1.36878,0 -2.30218,-1.66065 -3.84475,-6.84029 z m -66.584621,-68.85988 c -6.38387,-2.3982 -8.82654,-2.5663 -14.18182,-0.97596 -5.34873,1.58841 -7.28112,0.95818 -7.28112,-2.37465 0,-3.26302 -2.20358,-7.87906 -4.03942,-8.46173 -1.02974,-0.32683 -3.75915,-0.0289 -6.06534,0.66204 -4.13313,1.23832 -4.2321,1.20955 -6.92175,-2.01222 -2.20981,-2.64699 -2.94208,-4.9327 -3.85107,-12.02063 -1.16785,-9.10634 -1.52053,-23.11668 -0.58193,-23.11668 0.29727,0 1.75977,0.89008 3.25,1.97795 2.51827,1.83833 3.40892,1.90522 12.61858,0.94766 6.87232,-0.71454 11.98765,-0.70778 16.69155,0.022 3.73037,0.57879 7.14629,1.05217 7.59093,1.05195 0.44465,-2.1e-4 4.05598,3.4644 8.02518,7.69913 6.6234,7.06649 7.52681,7.69073 10.98808,7.59262 2.07423,-0.0588 4.58828,0.33031 5.58677,0.86469 2.136391,1.14336 5.699321,6.68262 5.704681,8.86901 0.002,0.83878 -3.19142,5.45128 -7.096611,10.25 -5.24692,6.44743 -7.70975,8.72494 -9.4349,8.72494 -1.284,0 -3.39302,0.40243 -4.68671,0.89429 -1.59841,0.60772 -3.62206,0.41723 -6.3151,-0.59446 z M -415.98251,348.1836 c 1.98756,-8.04721 2.78643,-13.20177 2.25905,-14.57608 -0.71034,-1.85113 -10.68102,-8.37879 -14.11446,-9.24052 -3.19023,-0.8007 -5.20715,-3.17578 -6.04439,-7.11774 -0.58828,-2.76978 -0.30985,-3.40781 2.13871,-4.90099 2.69948,-1.64619 13.90361,-8.89584 25.12143,-16.25485 5.36969,-3.52258 13.1936,-11.53955 13.1936,-13.51916 0,-0.59278 2.23944,-3.34538 4.97654,-6.1169 6.74061,-6.8254 7.21298,-9.68318 2.58177,-15.6194 -1.97194,-2.52761 -4.70426,-5.10546 -6.07183,-5.72856 -3.75445,-1.71065 -3.02931,-3.62369 2.76352,-7.29061 6.36172,-4.02702 17.75,-14.66913 17.75,-16.587 0,-0.76163 0.7875,-4.06648 1.75,-7.34409 2.22997,-7.59376 5.36962,-9.42728 15.66389,-9.14754 3.80264,0.10333 7.10715,0.38115 7.34336,0.61736 1.03092,1.03091 -6.32425,23.17958 -8.22918,24.78057 -1.11544,0.93747 -3.3412,2.7793 -4.94615,4.09295 -2.56658,2.10076 -2.8958,2.97724 -2.73318,7.27661 0.26773,7.07826 1.31426,7.71206 12.92467,7.82751 9.0874,0.0904 10.22411,0.32387 13.86648,2.84844 5.32461,3.69055 9.92065,3.61883 16.02116,-0.25 2.60178,-1.65 5.37959,-3 6.1729,-3 0.79331,0 3.39737,-1.80204 5.78679,-4.00453 4.00416,-3.69091 6.19462,-4.92527 16.56455,-9.33445 2.0269,-0.86182 4.69903,-2.93811 5.93805,-4.61398 2.90821,-3.93357 5.61602,-3.88143 11.05006,0.21276 2.37963,1.79289 5.50404,4.01391 6.94313,4.9356 3.86829,2.47751 4.10336,5.12149 0.89201,10.03302 -1.53611,2.34937 -3.1184,5.84658 -3.51621,7.77158 -0.3978,1.925 -1.17641,4.0625 -1.73025,4.75 -1.54083,1.91271 -11.09086,1.50348 -17.5024,-0.75 -7.45715,-2.62098 -7.71768,-2.5838 -10.09184,1.44011 -1.11634,1.89206 -3.83067,4.63192 -6.03183,6.08858 -2.20117,1.45666 -4.45649,3.95188 -5.01183,5.54492 -1.32029,3.7874 -7.68519,12.09483 -10.45127,13.64095 -1.1951,0.66802 -5.86623,1.23052 -10.38028,1.25 l -8.20737,0.0354 -2.79263,-3.59981 c -1.53595,-1.97989 -3.52519,-4.54865 -4.42054,-5.70834 -1.59389,-2.06447 -1.91345,-2.08509 -15.29307,-0.98689 -7.54139,0.619 -14.31805,1.66349 -15.12208,2.33078 -2.94844,2.44698 -1.65073,5.59849 4.49913,10.9262 6.5875,5.70685 10.04393,10.55991 10.04393,14.10234 0,1.28052 1.16341,4.00702 2.58535,6.05889 1.42195,2.05186 2.82513,5.51833 3.11819,7.70325 0.4611,3.43776 0.19687,4.19273 -1.96266,5.6077 -5.23504,3.43014 -8.42448,3.63701 -15.68647,1.01747 -3.73801,-1.34833 -7.94482,-2.45155 -9.34847,-2.45155 -3.05732,0 -7.69637,4.38296 -12.36694,11.68423 -4.58436,7.16652 -6.5438,8.31577 -14.17808,8.31577 l -6.39407,0 0.67921,-2.75 z m 242.92713,-8.34177 c -5.21761,-1.50442 -13.65008,-13.04483 -14.91211,-20.40823 -0.37706,-2.2 -1.31207,-4.99974 -2.0778,-6.22165 -0.76573,-1.2219 -1.85993,-4.40245 -2.43156,-7.06787 -1.11878,-5.21667 -4.93057,-13.42464 -7.60875,-16.384 -1.99381,-2.20313 -5.44867,-2.3403 -9.26309,-0.36779 -2.76428,1.42947 -5.57673,6.24733 -7.98015,13.67039 -0.64626,1.996 -2.04655,4.4178 -3.11175,5.3818 -1.84585,1.67047 -2.06698,1.66989 -4.71236,-0.0124 -1.52659,-0.97079 -3.98775,-3.0551 -5.46925,-4.6318 -1.91731,-2.04047 -3.65169,-2.86668 -6.01786,-2.86668 -1.8981,0 -4.90261,-1.07253 -7.00332,-2.5 -4.98725,-3.38892 -8.7043,-3.23764 -12.28519,0.5 -1.5808,1.65 -3.60514,3 -4.49853,3 -2.48436,0 -6.00147,-3.79024 -6.00147,-6.46753 0,-2.83004 -2.41617,-5.53247 -4.94643,-5.53247 -0.99196,0 -3.17999,-0.27528 -4.86228,-0.61174 -4.06984,-0.81397 -7.69924,2.73982 -8.67074,8.49012 -1.02892,6.09012 -3.02842,7.00057 -15.28303,6.95894 -9.29615,-0.0316 -10.40208,-0.23417 -11.74512,-2.15163 -2.64678,-3.77881 -2.96757,-8.55171 -0.77416,-11.51851 1.08454,-1.46695 2.77151,-4.21348 3.7488,-6.10339 0.9773,-1.88992 4.61703,-6.23471 8.08829,-9.65508 l 6.31138,-6.21886 3.81665,1.36118 c 2.09915,0.74865 7.73831,1.38094 12.53146,1.40508 9.44738,0.0476 10.78518,-0.72642 10.78518,-6.23989 0,-1.32839 1.34181,-4.39547 2.9818,-6.81574 1.94807,-2.87491 2.98811,-5.67108 3,-8.06549 0.0155,-3.12794 -0.67787,-4.2789 -4.7318,-7.85416 -2.6125,-2.30403 -6.82391,-5.24263 -9.35869,-6.53023 l -4.6087,-2.34108 -0.50971,-6.34995 c -0.69953,-8.71468 -2.76278,-12.37665 -7.82846,-13.89436 -3.6996,-1.10843 -4.32907,-1.82878 -7.39309,-8.46045 -3.78295,-8.18769 -5.54371,-9.50411 -15.93565,-11.91416 -6.71412,-1.55711 -10.95716,-0.95024 -11.84942,1.69478 -0.35169,1.04255 -1.20122,0.95579 -4.10487,-0.4192 -2.01378,-0.9536 -3.66141,-2.13704 -3.66141,-2.62986 0,-0.49281 2.3625,-2.68031 5.25,-4.8611 2.8875,-2.1808 5.90559,-5.27236 6.70687,-6.87015 2.62693,-5.23822 4.13786,-6.40507 8.29383,-6.40507 2.16739,0 5.21814,-0.75459 6.77943,-1.67687 3.76309,-2.22291 4.9593,-1.13802 7.88593,7.15202 2.41776,6.84859 5.736,10.53313 9.4688,10.51403 1.16333,-0.006 4.32416,-0.68096 7.02407,-1.5 5.70289,-1.73003 22.11426,-2.00116 26.23761,-0.43347 3.66861,1.39481 6.463,-0.12662 9.21017,-5.01455 2.77976,-4.94592 10.55,-12.04116 13.18669,-12.04116 2.81447,0 5.81828,-1.63612 9.63795,-5.24962 l 3.18135,-3.00964 6.81865,1.79414 c 9.4143,2.47712 11.45008,3.64951 16.64089,9.58339 l 4.52341,5.17093 10.82718,0.16602 c 8.91183,0.13664 10.74791,0.42064 10.37913,1.60539 -0.24641,0.79167 -0.36969,3.12066 -0.27394,5.17554 0.16003,3.43449 -0.26056,4.05724 -5.20911,7.71295 l -5.3832,3.9768 -0.7144,8.57624 c -0.39291,4.71693 -0.44186,10.28057 -0.10876,12.36364 0.82171,5.13868 6.27478,17.045 9.2585,20.21513 l 2.42914,2.58092 -3.02509,3.80659 c -4.05523,5.10284 -3.92895,8.36337 0.4749,12.26225 2.72334,2.41106 3.5,3.86329 3.5,6.54445 0,2.02645 1.02976,4.96322 2.5,7.12974 1.375,2.02618 2.5,4.25478 2.5,4.95246 0,1.5101 -5.15358,6.64268 -6.66986,6.64268 -2.22628,0 -6.33014,4.21795 -6.33014,6.50613 0,1.29854 1.33445,4.52838 2.96544,7.17742 2.74461,4.4578 3.05666,5.97065 4.19049,20.31645 1.99748,25.2732 2.10755,24.60662 -3.78274,22.90823 z m -384.29783,-9.76024 c -2.98355,-0.93269 -5.61338,-2.26206 -5.84408,-2.95415 -0.67641,-2.02924 4.51833,-8.00716 10.28587,-11.83659 2.93837,-1.95097 6.47848,-5.19198 7.86691,-7.20224 2.77509,-4.01795 7.59795,-17.31003 7.60897,-20.97075 0.0142,-4.71695 1.69843,-6.18426 7.09852,-6.18426 4.24434,0 5.43794,-0.44606 7.71482,-2.88311 1.4815,-1.58571 4.14279,-3.61536 5.91399,-4.51035 1.77119,-0.89498 3.68369,-2.493 4.25,-3.55115 1.42992,-2.67183 1.30411,-14.38092 -0.17036,-15.85539 -1.6577,-1.6577 -11.3704,-1.50276 -19.16871,0.30578 -3.57105,0.82819 -9.33647,1.61569 -12.81205,1.75 -5.82256,0.22503 -6.34366,0.0727 -6.62992,-1.9381 -0.66232,-4.65234 7.62355,-14.95065 20.48456,-25.45976 6.73003,-5.49931 7.43632,-6.40401 6.82781,-8.74587 -1.39953,-5.3861 -1.64998,-10.96645 -0.58175,-12.96245 1.86364,-3.48224 7.27068,-3.79162 13.3415,-0.76337 4.33382,2.1618 6.44751,2.57954 12.23856,2.41877 7.89318,-0.21914 18.25082,2.38208 19.18568,4.81829 0.325,0.84692 -0.41394,3.32774 -1.64208,5.51293 -2.80532,4.99138 -2.15472,8.56887 1.72163,9.46684 1.50412,0.34844 4.65529,1.72896 7.00258,3.06783 4.04507,2.30724 4.82796,2.39929 15,1.76352 10.28147,-0.64261 14.42786,-0.13984 26.47114,3.2097 0.95642,0.26601 3.29494,2.8174 5.19671,5.66977 4.40242,6.60294 5.60312,7.28618 14.34783,8.16438 4.48098,0.45 8.06231,1.39921 9.47662,2.5117 1.25041,0.98358 3.84092,2.44442 5.75668,3.24631 3.66641,1.53467 10.99199,8.89088 10.97074,11.01661 -0.007,0.68592 -1.7888,3.15962 -3.95987,5.49712 -3.64732,3.92691 -4.33456,4.25 -9.04013,4.25 -2.801,0 -8.29809,-0.72905 -12.21576,-1.6201 -11.81312,-2.68684 -22.27366,-0.82262 -33.6319,5.9937 -10.42824,6.2582 -11.84493,6.44619 -21.14482,2.80595 -9.51295,-3.72363 -10.81257,-3.82346 -15.91155,-1.22215 -4.20611,2.1458 -5.0835,3.59592 -5.0835,8.40188 0,5.16474 -2.27598,7.40834 -8.25691,8.13944 -3.7241,0.45524 -6.31332,0.189 -8.93719,-0.91897 -2.03176,-0.85793 -4.37407,-1.29895 -5.20514,-0.98004 -0.83107,0.31891 -2.24657,3.12694 -3.14554,6.24006 -2.56046,8.86678 -13.35188,18.15379 -21.10635,18.16397 -2.98319,0.004 -9.34887,3.31756 -9.34887,4.86655 0,1.23679 -4.28439,3.93867 -7.14584,4.50641 -1.29479,0.2569 -4.79525,-0.29602 -7.7788,-1.22871 z m 446.62919,-4.44145 c -1.2125,-1.2614 -4.2817,-4.59196 -6.82043,-7.40125 -4.01349,-4.44122 -5.38378,-5.27213 -10.5,-6.36699 -7.09704,-1.51874 -14.58555,-1.68657 -23.61251,-0.5292 l -6.7284,0.86266 -4.2716,-3.8465 c -2.49305,-2.24493 -4.73711,-5.38691 -5.38961,-7.54613 -0.6149,-2.0348 -2.0774,-5.04699 -3.25,-6.69375 -3.15644,-4.43282 -2.68448,-5.87173 2.84501,-8.67373 7.88525,-3.99576 10.03092,-9.97191 5.50954,-15.34527 -1.3824,-1.64289 -2.90563,-5.08625 -3.38495,-7.65191 -0.51822,-2.77394 -1.9315,-5.77126 -3.48654,-7.39437 -3.29906,-3.44347 -3.27346,-4.0166 0.38494,-8.6201 3.64666,-4.58872 3.7839,-6.94026 0.5295,-9.07263 -2.68411,-1.75869 -6.99457,-10.16197 -9.03088,-17.60575 -2.38083,-8.7032 -0.009,-22.82162 3.83459,-22.82162 2.19963,0 7.66679,-6.10618 7.66679,-8.56289 0,-4.05447 4.02432,-7.25606 13.5,-10.74004 9.3368,-3.43293 10.03589,-4.21246 8.02687,-8.95051 -0.55176,-1.30126 0.44491,-2.92503 3.86482,-6.29656 3.87158,-3.81681 4.60831,-5.15038 4.60831,-8.34157 0,-4.24382 2.6716,-7.50866 5.6756,-6.93587 1.5921,0.30358 1.88807,1.71199 2.3244,11.06096 0.42979,9.20887 0.79942,11.01236 2.63247,12.84448 4.15946,4.15734 8.93883,-0.66268 10.0622,-10.1478 0.49265,-4.1596 1.06526,-5.31933 3.07958,-6.23711 2.34902,-1.07029 2.44498,-1.44246 1.89379,-7.34504 -0.57462,-6.15352 -0.54405,-6.24973 2.96525,-9.33094 3.92871,-3.44945 5.64713,-3.02029 6.8335,1.70658 0.36465,1.45291 1.795321,4.5738 3.179261,6.93531 2.29658,3.91883 2.9515,4.35138 7.5023,4.95507 5.8761,0.77949 7.83258,3.03709 8.6101,9.93526 0.39059,3.46527 1.18316,5.03755 3.39536,6.73558 11.57541,8.88497 16.85094,14.29912 18.93403,19.43152 2.26599,5.58302 4.16799,7.28357 8.14642,7.28357 5.04462,0 5.95569,4.12784 3.13212,14.19096 -1.61679,5.76222 -1.60739,5.88131 0.91299,11.5656 4.05918,9.15481 5.12651,13.61653 3.83474,16.03023 -2.0785,3.8837 -1.29202,5.80338 3.63589,8.87468 4.02994,2.51165 5.62165,4.55608 10.5,13.48644 3.1625,5.78931 5.75,11.47648 5.75,12.63816 0,1.23232 -1.4351,3.20675 -3.44516,4.7399 -2.29609,1.75131 -3.98729,4.25994 -5.07056,7.52137 -0.92791,2.79366 -2.90213,5.96792 -4.60062,7.3971 -3.8122,3.20775 -14.62059,6.55134 -21.239,6.5703 -6.61509,0.019 -9.7225,1.64557 -11.8826,6.2201 -1.44024,3.05006 -2.58303,3.93148 -6.67143,5.14561 -7.00597,2.08055 -8.82917,3.21758 -15.65271,9.76176 -3.56757,3.42152 -7.83711,6.44017 -10.375731,7.33585 -5.56,1.96168 -5.747,1.94442 -8.35764,-0.77152 z M 76.071401,301.54129 c -7.6518,-2.40751 -8.1705,-2.97715 -8.9426,-9.82156 -0.3899,-3.45737 -1.5991,-7.72838 -2.687,-9.49114 -2.8552,-4.62654 -1.6972,-9.61179 3.3057,-14.2313 2.8497,-2.63127 4.3622,-5.19019 5.6608,-9.57717 l 1.7721,-5.98652 4.4455,-0.28676 c 3.8668,-0.24943 5.4816,0.36893 12.4046,4.75 4.3775,2.77022 8.303399,5.03676 8.724299,5.03676 0.4209,0 1.4872,1.39621 2.3697,3.10269 1.2413,2.40034 1.3666,3.70196 0.5535,5.75 -0.578,1.45602 -1.7873,6.02231 -2.6874,10.14731 -1.889399,8.65934 -5.585099,16.12037 -9.699899,19.58272 -3.2686,2.75041 -8.5951,3.10913 -15.2193,1.02497 z m -19.065,-7.67596 c -3.639,-2.90719 -4.368,-3.10519 -9.6907,-2.63202 -4.4914,0.39928 -6.22,0.13566 -7.86965,-1.20015 -2.03509,-1.64792 -2.07033,-2.04008 -0.94394,-10.50434 1.04423,-7.84698 0.98641,-9.07765 -0.53772,-11.44387 -0.93928,-1.45824 -2.31195,-3.01121 -3.05037,-3.45104 -2.7488,-1.63728 -1.3006,-5.5057 4.80228,-12.82782 3.3797,-4.05487 7.0922,-7.90809 8.25,-8.5627 2.4186,-1.36746 19.8905,-0.66056 22.9808,0.92979 1.6197,0.83355 1.7879,1.71191 1.2326,6.43663 -0.8909,7.5801 -3.0556,12.29428 -7.2967,15.89039 -3.216,2.72692 -3.6697,3.70651 -4.0957,8.84351 -0.3884,4.68404 -0.064,6.51484 1.7133,9.67758 2.5542,4.54459 2.5575,11.20906 0.01,11.6917 -0.8608,0.16281 -3.3358,-1.11864 -5.5,-2.84766 z M -330.33264,262.21996 c -0.77223,-0.30565 -2.97253,-1.62013 -4.88954,-2.92105 -3.08328,-2.09237 -4.6258,-2.36531 -13.36738,-2.36531 -9.49017,0 -9.92571,-0.0962 -10.98736,-2.42626 -1.69138,-3.71217 -0.25246,-7.29563 4.01001,-9.98641 2.10312,-1.32764 4.33983,-3.69042 4.97047,-5.25061 2.00156,-4.95191 8.16163,-25.76512 8.16481,-27.58672 0.003,-1.99381 -2.98007,-2.36687 -4.75268,-0.59426 -0.65447,0.65447 -3.62567,1.07502 -6.85056,0.96964 -6.68372,-0.21841 -14.9946,2.26039 -16.40322,4.89241 -0.54476,1.0179 -0.99048,2.74817 -0.99048,3.84504 0,5.10033 -5.61217,6.16806 -12.21864,2.32462 -3.14444,-1.82933 -3.77883,-3.03182 -4.84702,-9.18745 -0.42948,-2.475 -1.74569,-7.16121 -2.9249,-10.41381 -2.3101,-6.37186 -2.04833,-10.20067 0.74124,-10.84194 2.16916,-0.49864 10.87128,2.60365 13.19027,4.70231 2.41788,2.18815 5.22921,1.9384 10.65507,-0.94656 2.58602,-1.375 5.2723,-2.5 5.96951,-2.5 0.69721,0 2.09269,-1.132 3.10106,-2.51555 l 1.83341,-2.51555 9.28065,1.98375 c 5.92356,1.26617 11.56515,3.26131 15.5961,5.51555 7.54326,4.21843 9.35231,4.37463 10.66543,0.92087 0.9347,-2.45846 1.26903,-2.57126 5.72524,-1.93157 2.60292,0.37365 6.60325,1.56846 8.88961,2.65513 4.17661,1.98508 4.89096,3.00125 9.23665,13.13934 1.7464,4.07419 2.43892,4.74803 4.87965,4.74803 4.24977,0 6.27024,2.03852 7.77673,7.84621 1.47195,5.6745 1.07807,7.93676 -1.73421,9.96049 -0.99872,0.71869 -1.81585,1.97202 -1.81585,2.78519 0,3.40576 -3.29418,6.34295 -9.3884,8.37097 -4.49409,1.49554 -7.44516,3.31077 -10.58725,6.51233 -2.45585,2.50232 -5.70181,4.72275 -7.44036,5.08962 -1.6962,0.35794 -5.07364,1.95229 -7.50543,3.543 -4.46615,2.92143 -5.43662,3.18628 -7.98263,2.17855 z m 423.390041,-8.26969 c -4.1814,-2.75686 -7.6824,-4.2053 -11.4887,-4.75308 -3.9202,-0.56418 -5.5662,-1.26382 -5.7974,-2.46425 -0.3476,-1.80501 0.4538,-2.64689 8.6545,-9.09153 2.9449,-2.3143 6.6239,-5.25218 8.1756,-6.52863 1.9726,-1.62268 5.0246,-2.62322 10.145599,-3.32606 12.6681,-1.73864 13.0728,-2.05085 14.2894,-11.02135 0.6933,-5.1128 1.5901,-6.20999 5.924,-7.24782 2.3344,-0.55901 3.4382,-0.16563 5.75,2.04921 3.5782,3.42811 3.5535,4.87811 -0.1668,9.79498 -3.6233,4.78868 -3.7093,6.5308 -0.4722,9.57186 3.0527,2.86785 3.1998,6.05632 0.3965,8.59501 -1.6699,1.51221 -3.9894,1.97715 -11.25,2.25496 -10.3904,0.39757 -12.0624,1.14304 -10.4587,4.66285 0.8998,1.97477 0.6044,3.10702 -1.806,6.92227 -1.585,2.50873 -3.5568,4.55806 -4.3818,4.55406 -0.824999,-0.004 -4.206299,-1.79161 -7.513999,-3.97248 z M -401.7244,249.30444 c -0.34603,-0.34604 -4.1121,-0.97018 -8.36904,-1.38698 -7.17013,-0.70204 -7.98032,-1.02019 -11.00619,-4.32199 -4.75793,-5.19179 -5.08499,-7.73297 -1.65296,-12.84313 1.57837,-2.35015 4.78086,-5.55649 7.11663,-7.12522 2.39157,-1.6062 4.86048,-4.32083 5.65148,-6.21396 1.58499,-3.7934 6.97031,-7.04247 13.36873,-8.06562 3.37838,-0.54022 4.16573,-0.32254 5.09176,1.40777 0.60248,1.12574 1.09542,3.81503 1.09542,5.97618 0,4.99527 3.28208,8.47077 10.15516,10.75365 8.76488,2.91122 8.05358,4.22606 -8.91648,16.48204 -7.64603,5.52205 -10.945,6.92677 -12.53451,5.33726 z m 367.626401,-3.15217 c -1.74318,-1.49527 -4.15418,-3.40459 -5.35777,-4.24295 -2.01331,-1.40236 -2.09399,-1.84226 -1.00869,-5.5 1.08241,-3.648 0.91341,-4.59394 -2.05027,-11.47572 -3.57704,-8.30602 -3.77404,-10.45346 -1.85143,-20.18205 1.74991,-8.8547 0.69353,-11.36513 -5.25938,-12.49861 -3.93407,-0.74909 -4.52466,-1.2739 -6.88783,-6.12061 -1.42164,-2.9157 -4.99669,-7.74351 -7.94456,-10.72845 l -5.35976,-5.42718 2.04555,-2.27155 c 1.12505,-1.24935 2.29003,-2.94655 2.58885,-3.77155 0.29881,-0.825 1.47056,-3.82763 2.60388,-6.67252 l 2.06057,-5.17252 -2.12107,-2.69651 c -1.75483,-2.2309 -1.91432,-3.02759 -0.92366,-4.61388 0.95873,-1.53519 0.8922,-2.35313 -0.33379,-4.10348 -0.84217,-1.20236 -1.53121,-3.48778 -1.53121,-5.07873 0,-2.06207 -1.07006,-3.87275 -3.72677,-6.30621 -3.05411,-2.79745 -3.53204,-3.72427 -2.64787,-5.13487 1.48092,-2.36267 5.16113,-2.72448 7.37093,-0.72464 1.00725,0.91155 4.45764,2.4403 7.66753,3.39723 l 5.83618,1.73987 -0.36007,7.69804 c -0.2168,4.63506 0.0748,8.22199 0.73279,9.01486 0.60108,0.72425 3.54543,2.15047 6.54302,3.16938 l 5.45015,1.85257 7.31706,-2.80926 c 4.02438,-1.54509 8.33567,-3.4424 9.58064,-4.21625 3.95026,-2.45539 14.5550304,-5.31681 19.7542804,-5.33018 3.71668,-0.01 5.97,0.63409 8.68966,2.48215 2.43529,1.65482 6.1336296,2.8437 10.9821396,3.53035 4.02068,0.56941 8.97656,1.48326 11.01306,2.03076 2.0365,0.54751 7.25652,0.90803 11.60004,0.80116 7.8473,-0.19308 7.9663,-0.15763 18.7973,5.60132 5.9949,3.1876 15.6249,8.62311 21.3999,12.07891 5.775,3.45581 12.7869,7.5611 15.5819,9.12287 2.7951,1.56177 10.557799,6.13411 17.250499,10.16075 l 12.1685,7.32117 -0.59,4.17883 c -1.4639,10.36875 -3.2726,12.67883 -9.9272,12.67883 -4.3985,0 -17.879899,-4.48422 -21.812799,-7.25544 -3.597,-2.53449 -6.8193,-1.30223 -9.7985,3.74713 -1.1384,1.92957 -2.421,3.50831 -2.85,3.50831 -0.4291,0 -3.7517,-3.15 -7.3836,-7 -3.6319,-3.85 -7.1384,-7 -7.7924,-7 -2.3944,0 -4.9317,3.48707 -6.4948,8.92601 -2.2034,7.66689 -4.0912,11.07576 -6.1273,11.06422 -0.9483,-0.005 -4.1315,-1.13037 -7.0736,-2.5 -2.9421,-1.36963 -6.8349,-2.49023 -8.65067,-2.49023 -1.81577,0 -5.70859,-1.1206 -8.6507,-2.49023 -7.08656,-3.29897 -10.29974,-3.19948 -14.45345,0.44753 l -3.36818,2.9573 -4.2638396,-1.93534 c -6.69863997,-3.04049 -15.04001,-2.16554 -19.5675504,2.0525 -2.86518,2.66932 -2.77626,5.65045 0.30372,10.18305 2.74307,4.03679 3.1787504,7.00712 1.25,8.52221 -0.6875,0.54006 -3.40872,1.7894 -6.04717,2.77632 -5.17277,1.9349 -6.11854,3.1088 -9.19364,11.41125 -1.10506,2.98352 -2.45919,5.55692 -3.00919,5.71867 -0.55,0.16175 -2.42624,-0.92932 -4.16943,-2.42459 z m -343.830571,-52.5473 c -4.13142,-2.37115 -4.23201,-2.70208 -2.68106,-8.82071 0.81123,-3.20037 6.07428,-11.18403 8.56498,-12.99245 1.45864,-1.05906 6.89361,0.96477 9.44644,3.5176 4.13281,4.13281 3.87324,16.62419 -0.34545,16.62419 -0.86052,0 -3.32873,0.9 -5.48491,2 -4.82685,2.46247 -4.62469,2.46947 -9.5,-0.32863 z m 253.16667,-25.33804 c -0.36667,-0.36666 -0.66667,-5.12125 -0.66667,-10.56574 0,-5.44449 -0.46583,-10.76949 -1.03518,-11.83333 -1.91007,-3.569 -8.48127,-2.08693 -12.52496,2.82487 l -2.06015,2.50242 -4.47494,-1.97947 c -2.46121,-1.08872 -6.93415,-2.54821 -9.93985,-3.24333 -7.37513,-1.70561 -9.67805,-3.34027 -10.89012,-7.73003 -1.13556,-4.11266 -1.76928,-2.74465 8.06214,-17.40377 7.6893,-11.46513 8.98134,-12.65653 14.59199,-13.45547 6.73122,-0.9585 10.75446,-3.06527 13.44575,-7.04085 1.72398,-2.546663 3.71031,-3.875303 7.68087,-5.137693 5.16819,-1.64316 5.40433,-1.63601 6.75,0.2043 0.76695,1.04886 1.39445,2.91672 1.39445,4.15079 0,1.234073 0.44921,3.425283 0.99824,4.869343 0.86823,2.28363 1.48685,2.58514 4.75,2.3151 3.48479,-0.28838 3.77534,-0.5589 4.08311,-3.80173 0.30579,-3.221863 1.50498,-4.955433 3.45419,-4.993433 0.43204,-0.008 1.625701,1.94472 2.652571,4.340323 1.82144,4.24923 3.50149,5.62854 6.89368,5.65968 3.49125,0.032 4.4693,1.71133 4.73959,8.13778 0.14683,3.4908 0.64083,8.79885 1.09779,11.79567 l 0.83083,5.44875 7.06169,3.05125 c 3.88393,1.67818 8.10754,3.747 9.38579,4.59738 2.07863,1.38284 2.18152,1.77443 0.97421,3.70765 -1.19188,1.90849 -1.09071,2.43739 0.86421,4.51831 2.82281,3.00474 2.7244,4.94739 -0.5941,11.7279 -2.32353,4.74753 -3.1233,5.54189 -5.84574,5.80619 -3.76943,0.36595 -6.344,-2.58525 -6.3498,-7.2787 -0.006,-5.02223 -3.3092,-9.32424 -7.69856,-10.02702 -6.48906,-1.03897 -6.69639,-1.25424 -11.55744,-12.00047 -2.860151,-6.32288 -4.893211,-6.69073 -11.039781,-1.99747 -4.99557,3.8144 -5.81354,6.43969 -3.72116,11.94308 0.84629,2.2259 0.5746,2.93642 -2,5.2304 -2.33882,2.0839 -2.97932,3.48965 -2.97932,6.53895 0,6.32562 -3.74059,11.71111 -6.33333,9.11837 z"
       id="path3972"
       inkscape:connector-curvature="0" />
  </g>
</svg>
