<svg id="visual" viewBox="0 0 900 300" width="900" height="300" xmlns="http://www.w3.org/2000/svg" xmlns:xlink="http://www.w3.org/1999/xlink" version="1.1">
<rect x="0" y="0" width="900" height="300" fill="#001220"></rect>
<path d="M0 199L12.5 206.5C25 214 50 229 75 236.3C100 243.7 125 243.3 150 242.5C175 241.7 200 240.3 225 236.2C250 232 275 225 300 221.7C325 218.3 350 218.7 375 215.2C400 211.7 425 204.3 450 202.2C475 200 500 203 525 211.2C550 219.3 575 232.7 600 232C625 231.3 650 216.7 675 211.7C700 206.7 725 211.3 750 213.3C775 215.3 800 214.7 825 212.5C850 210.3 875 206.7 887.5 204.8L900 203L900 301L887.5 301C875 301 850 301 825 301C800 301 775 301 750 301C725 301 700 301 675 301C650 301 625 301 600 301C575 301 550 301 525 301C500 301 475 301 450 301C425 301 400 301 375 301C350 301 325 301 300 301C275 301 250 301 225 301C200 301 175 301 150 301C125 301 100 301 75 301C50 301 25 301 12.5 301L0 301Z" fill="#a7c957">
</path>
<path d="M0 250L12.5 246.7C25 243.3 50 236.7 75 231.3C100 226 125 222 150 221.2C175 220.3 200 222.7 225 227.3C250 232 275 239 300 237.8C325 236.7 350 227.3 375 223.8C400 220.3 425 222.7 450 226.7C475 230.7 500 236.3 525 236C550 235.7 575 229.3 600 226.3C625 223.3 650 223.7 675 223.3C700 223 725 222 750 226.7C775 231.3 800 241.7 825 244.8C850 248 875 244 887.5 242L900 240L900 301L887.5 301C875 301 850 301 825 301C800 301 775 301 750 301C725 301 700 301 675 301C650 301 625 301 600 301C575 301 550 301 525 301C500 301 475 301 450 301C425 301 400 301 375 301C350 301 325 301 300 301C275 301 250 301 225 301C200 301 175 301 150 301C125 301 100 301 75 301C50 301 25 301 12.5 301L0 301Z" fill="#91b954"></path>
<path d="M0 245L12.5 244.5C25 244 50 243 75 244C100 245 125 248 150 251.8C175 255.7 200 260.3 225 259.8C250 259.3 275 253.7 300 252.8C325 252 350 256 375 260C400 264 425 268 450 267.3C475 266.7 500 261.3 525 260.3C550 259.3 575 262.7 600 262.8C625 263 650 260 675 256.3C700 252.7 725 248.3 750 247C775 245.7 800 247.3 825 247.8C850 248.3 875 247.7 887.5 247.3L900 247L900 301L887.5 301C875 301 850 301 825 301C800 301 775 301 750 301C725 301 700 301 675 301C650 301 625 301 600 301C575 301 550 301 525 301C500 301 475 301 450 301C425 301 400 301 375 301C350 301 325 301 300 301C275 301 250 301 225 301C200 301 175 301 150 301C125 301 100 301 75 301C50 301 25 301 12.5 301L0 301Z" fill="#7da951">
</path>
<path d="M0 267L12.5 269.2C25 271.3 50 275.7 75 278C100 280.3 125 280.7 150 279C175 277.3 200 273.7 225 274.8C250 276 275 282 300 282.8C325 283.7 350 279.3 375 278.7C400 278 425 281 450 280C475 279 500 274 525 273.2C550 272.3 575 275.7 600 277C625 278.3 650 277.7 675 275.3C700 273 725 269 750 267.8C775 266.7 800 268.3 825 268.8C850 269.3 875 268.7 887.5 268.3L900 268L900 301L887.5 301C875 301 850 301 825 301C800 301 775 301 750 301C725 301 700 301 675 301C650 301 625 301 600 301C575 301 550 301 525 301C500 301 475 301 450 301C425 301 400 301 375 301C350 301 325 301 300 301C275 301 250 301 225 301C200 301 175 301 150 301C125 301 100 301 75 301C50 301 25 301 12.5 301L0 301Z" fill="#6a994e">
</path>
</svg>